ffmpeg started on 2025-03-18 at 17:20:51
Report written to "D:\Convert\FFMetrics\reports\vmaf_report-6.txt"
Log level: 32
Command line:
ffmpeg -hide_banner -nostdin -r 24000/1001 -i "E:\\Convert\\out\\JamClub_Tsue_to_Tsurugi_no_Wistoria_11_1080p_HEVC.mkv" -r 24000/1001 -i "E:\\Convert\\files\\JamClub_Tsue_to_Tsurugi_no_Wistoria_11_1080p.mp4" -lavfi "[0:v]settb=AVTB,setpts=PTS-STARTPTS,format=pix_fmts=yuv420p10,fps=24000/1001,scale=1920:1080:flags=bicubic[main];[1:v]settb=AVTB,setpts=PTS-STARTPTS,format=pix_fmts=yuv420p,fps=24000/1001,scale=1920:1080:flags=bicubic[ref];[main][ref]libvmaf=eof_action=endall:log_path='D\\:/Convert/FFMetrics/logs/vmaf_logfile-6.txt':n_threads=32:pool=Mean:model=version=vmaf_v0.6.1" -f null -
Input #0, matroska,webm, from 'E:\Convert\out\JamClub_Tsue_to_Tsurugi_no_Wistoria_11_1080p_HEVC.mkv':
  Metadata:
    creation_time   : 2025-01-11T12:05:58.000000Z
    ENCODER         : Lavf61.7.100
  Duration: 00:24:08.25, start: -0.001000, bitrate: 1544 kb/s
  Stream #0:0: Video: hevc (Main 10), yuv420p10le(tv, bt709), 1920x1080 [SAR 1:1 DAR 16:9], 23.98 fps, 23.98 tbr, 1k tbn (default)
      Metadata:
        BPS             : 1346962
        DURATION        : 00:24:08.113708333
        NUMBER_OF_FRAMES: 34720
        NUMBER_OF_BYTES : 243819260
        _STATISTICS_WRITING_APP: mkvpropedit v66.0.0 ('Josie') 64-bit
        _STATISTICS_WRITING_DATE_UTC: 2025-02-15 15:27:54
        _STATISTICS_TAGS: BPS DURATION NUMBER_OF_FRAMES NUMBER_OF_BYTES
  Stream #0:1(eng): Audio: aac (LC), 48000 Hz, stereo, fltp (default)
      Metadata:
        title           : Stereo
        BPS             : 193721
        DURATION        : 00:24:08.213000000
        NUMBER_OF_FRAMES: 67886
        NUMBER_OF_BYTES : 35068666
        _STATISTICS_WRITING_APP: mkvpropedit v66.0.0 ('Josie') 64-bit
        _STATISTICS_WRITING_DATE_UTC: 2025-02-15 15:27:54
        _STATISTICS_TAGS: BPS DURATION NUMBER_OF_FRAMES NUMBER_OF_BYTES
Input #1, mov,mp4,m4a,3gp,3g2,mj2, from 'E:\Convert\files\JamClub_Tsue_to_Tsurugi_no_Wistoria_11_1080p.mp4':
  Metadata:
    major_brand     : isom
    minor_version   : 512
    compatible_brands: isomiso2avc1mp41
    encoder         : Lavf60.16.100
  Duration: 00:24:08.24, start: 0.000000, bitrate: 5213 kb/s
  Stream #1:0[0x1](und): Video: h264 (High) (avc1 / 0x31637661), yuv420p(progressive), 1920x1080 [SAR 1:1 DAR 16:9], 5016 kb/s, 23.98 fps, 23.98 tbr, 90k tbn (default)
      Metadata:
        handler_name    : VideoHandler
        vendor_id       : [0][0][0][0]
  Stream #1:1[0x2](eng): Audio: aac (LC) (mp4a / 0x6134706D), 48000 Hz, stereo, fltp, 191 kb/s (default)
      Metadata:
        handler_name    : SoundHandler
        vendor_id       : [0][0][0][0]
Stream mapping:
  Stream #0:0 (hevc) -> settb:default
  Stream #1:0 (h264) -> settb:default
  libvmaf:default -> Stream #0:0 (wrapped_avframe)
  Stream #0:1 -> #0:1 (aac (native) -> pcm_s16le (native))
Output #0, null, to 'pipe:':
  Metadata:
    encoder         : Lavf61.7.100
  Stream #0:0: Video: wrapped_avframe, yuv420p10le(tv, bt709, progressive), 1920x1080 [SAR 1:1 DAR 16:9], q=2-31, 200 kb/s, 23.98 fps, 23.98 tbn
      Metadata:
        encoder         : Lavc61.19.100 wrapped_avframe
  Stream #0:1(eng): Audio: pcm_s16le, 48000 Hz, stereo, s16, 1536 kb/s (default)
      Metadata:
        title           : Stereo
        BPS             : 193721
        DURATION        : 00:24:08.213000000
        NUMBER_OF_FRAMES: 67886
        NUMBER_OF_BYTES : 35068666
        _STATISTICS_WRITING_APP: mkvpropedit v66.0.0 ('Josie') 64-bit
        _STATISTICS_WRITING_DATE_UTC: 2025-02-15 15:27:54
        _STATISTICS_TAGS: BPS DURATION NUMBER_OF_FRAMES NUMBER_OF_BYTES
        encoder         : Lavc61.19.100 pcm_s16le
frame=   34 fps=0.0 q=-0.0 size=N/A time=00:00:01.41 bitrate=N/A speed=2.77x    frame=   76 fps= 74 q=-0.0 size=N/A time=00:00:03.16 bitrate=N/A speed=3.11x    frame=  117 fps= 76 q=-0.0 size=N/A time=00:00:04.87 bitrate=N/A speed=3.15x    frame=  158 fps= 77 q=-0.0 size=N/A time=00:00:06.58 bitrate=N/A speed= 3.2x    frame=  198 fps= 77 q=-0.0 size=N/A time=00:00:08.25 bitrate=N/A speed=3.22x    frame=  241 fps= 78 q=-0.0 size=N/A time=00:00:10.05 bitrate=N/A speed=3.25x    frame=  282 fps= 78 q=-0.0 size=N/A time=00:00:11.76 bitrate=N/A speed=3.27x    frame=  325 fps= 79 q=-0.0 size=N/A time=00:00:13.55 bitrate=N/A speed=3.28x    frame=  368 fps= 79 q=-0.0 size=N/A time=00:00:15.34 bitrate=N/A speed=3.31x    frame=  408 fps= 79 q=-0.0 size=N/A time=00:00:17.01 bitrate=N/A speed=3.31x    frame=  451 fps= 79 q=-0.0 size=N/A time=00:00:18.81 bitrate=N/A speed=3.31x    frame=  491 fps= 79 q=-0.0 size=N/A time=00:00:20.47 bitrate=N/A speed=3.31x    frame=  536 fps= 80 q=-0.0 size=N/A time=00:00:22.35 bitrate=N/A speed=3.34x    frame=  576 fps= 80 q=-0.0 size=N/A time=00:00:24.02 bitrate=N/A speed=3.33x    frame=  620 fps= 80 q=-0.0 size=N/A time=00:00:25.85 bitrate=N/A speed=3.35x    frame=  657 fps= 80 q=-0.0 size=N/A time=00:00:27.40 bitrate=N/A speed=3.33x    frame=  703 fps= 80 q=-0.0 size=N/A time=00:00:29.32 bitrate=N/A speed=3.35x    frame=  738 fps= 80 q=-0.0 size=N/A time=00:00:30.78 bitrate=N/A speed=3.32x    frame=  782 fps= 80 q=-0.0 size=N/A time=00:00:32.61 bitrate=N/A speed=3.33x    frame=  819 fps= 80 q=-0.0 size=N/A time=00:00:34.15 bitrate=N/A speed=3.32x    frame=  866 fps= 80 q=-0.0 size=N/A time=00:00:36.11 bitrate=N/A speed=3.34x    frame=  902 fps= 80 q=-0.0 size=N/A time=00:00:37.62 bitrate=N/A speed=3.32x    frame=  950 fps= 80 q=-0.0 size=N/A time=00:00:39.62 bitrate=N/A speed=3.34x    frame=  986 fps= 80 q=-0.0 size=N/A time=00:00:41.12 bitrate=N/A speed=3.33x    frame= 1031 fps= 80 q=-0.0 size=N/A time=00:00:43.00 bitrate=N/A speed=3.34x    frame= 1066 fps= 80 q=-0.0 size=N/A time=00:00:44.46 bitrate=N/A speed=3.32x    frame= 1108 fps= 80 q=-0.0 size=N/A time=00:00:46.21 bitrate=N/A speed=3.32x    frame= 1143 fps= 79 q=-0.0 size=N/A time=00:00:47.67 bitrate=N/A speed= 3.3x    frame= 1189 fps= 80 q=-0.0 size=N/A time=00:00:49.59 bitrate=N/A speed=3.32x    frame= 1225 fps= 79 q=-0.0 size=N/A time=00:00:51.09 bitrate=N/A speed= 3.3x    frame= 1269 fps= 79 q=-0.0 size=N/A time=00:00:52.92 bitrate=N/A speed=3.31x    frame= 1307 fps= 79 q=-0.0 size=N/A time=00:00:54.51 bitrate=N/A speed=3.31x    frame= 1350 fps= 79 q=-0.0 size=N/A time=00:00:56.30 bitrate=N/A speed=3.31x    frame= 1389 fps= 79 q=-0.0 size=N/A time=00:00:57.93 bitrate=N/A speed=3.31x    frame= 1433 fps= 79 q=-0.0 size=N/A time=00:00:59.76 bitrate=N/A speed=3.31x    frame= 1473 fps= 79 q=-0.0 size=N/A time=00:01:01.43 bitrate=N/A speed=3.31x    frame= 1513 fps= 79 q=-0.0 size=N/A time=00:01:03.10 bitrate=N/A speed=3.31x    frame= 1553 fps= 79 q=-0.0 size=N/A time=00:01:04.77 bitrate=N/A speed=3.31x    frame= 1592 fps= 79 q=-0.0 size=N/A time=00:01:06.39 bitrate=N/A speed= 3.3x    frame= 1632 fps= 79 q=-0.0 size=N/A time=00:01:08.06 bitrate=N/A speed= 3.3x    frame= 1672 fps= 79 q=-0.0 size=N/A time=00:01:09.73 bitrate=N/A speed= 3.3x    frame= 1712 fps= 79 q=-0.0 size=N/A time=00:01:11.40 bitrate=N/A speed= 3.3x    frame= 1750 fps= 79 q=-0.0 size=N/A time=00:01:12.98 bitrate=N/A speed=3.29x    frame= 1789 fps= 79 q=-0.0 size=N/A time=00:01:14.61 bitrate=N/A speed=3.29x    frame= 1828 fps= 79 q=-0.0 size=N/A time=00:01:16.24 bitrate=N/A speed=3.29x    frame= 1871 fps= 79 q=-0.0 size=N/A time=00:01:18.03 bitrate=N/A speed=3.29x    frame= 1908 fps= 79 q=-0.0 size=N/A time=00:01:19.57 bitrate=N/A speed=3.28x    frame= 1953 fps= 79 q=-0.0 size=N/A time=00:01:21.45 bitrate=N/A speed=3.29x    frame= 1992 fps= 79 q=-0.0 size=N/A time=00:01:23.08 bitrate=N/A speed=3.29x    frame= 2034 fps= 79 q=-0.0 size=N/A time=00:01:24.83 bitrate=N/A speed=3.29x    frame= 2071 fps= 79 q=-0.0 size=N/A time=00:01:26.37 bitrate=N/A speed=3.28x    frame= 2115 fps= 79 q=-0.0 size=N/A time=00:01:28.21 bitrate=N/A speed=3.29x    frame= 2152 fps= 79 q=-0.0 size=N/A time=00:01:29.75 bitrate=N/A speed=3.28x    frame= 2195 fps= 79 q=-0.0 size=N/A time=00:01:31.54 bitrate=N/A speed=3.29x    frame= 2233 fps= 79 q=-0.0 size=N/A time=00:01:33.13 bitrate=N/A speed=3.29x    frame= 2281 fps= 79 q=-0.0 size=N/A time=00:01:35.13 bitrate=N/A speed=3.29x    frame= 2316 fps= 79 q=-0.0 size=N/A time=00:01:36.59 bitrate=N/A speed=3.29x    frame= 2360 fps= 79 q=-0.0 size=N/A time=00:01:38.43 bitrate=N/A speed=3.29x    frame= 2400 fps= 79 q=-0.0 size=N/A time=00:01:40.10 bitrate=N/A speed=3.29x    frame= 2445 fps= 79 q=-0.0 size=N/A time=00:01:41.97 bitrate=N/A speed= 3.3x    frame= 2481 fps= 79 q=-0.0 size=N/A time=00:01:43.47 bitrate=N/A speed=3.29x    frame= 2526 fps= 79 q=-0.0 size=N/A time=00:01:45.35 bitrate=N/A speed= 3.3x    frame= 2563 fps= 79 q=-0.0 size=N/A time=00:01:46.89 bitrate=N/A speed=3.29x    frame= 2608 fps= 79 q=-0.0 size=N/A time=00:01:48.77 bitrate=N/A speed= 3.3x    frame= 2644 fps= 79 q=-0.0 size=N/A time=00:01:50.27 bitrate=N/A speed=3.29x    frame= 2688 fps= 79 q=-0.0 size=N/A time=00:01:52.11 bitrate=N/A speed= 3.3x    frame= 2728 fps= 79 q=-0.0 size=N/A time=00:01:53.78 bitrate=N/A speed=3.29x    frame= 2772 fps= 79 q=-0.0 size=N/A time=00:01:55.61 bitrate=N/A speed= 3.3x    frame= 2814 fps= 79 q=-0.0 size=N/A time=00:01:57.36 bitrate=N/A speed= 3.3x    frame= 2856 fps= 79 q=-0.0 size=N/A time=00:01:59.11 bitrate=N/A speed= 3.3x    frame= 2898 fps= 79 q=-0.0 size=N/A time=00:02:00.87 bitrate=N/A speed= 3.3x    frame= 2939 fps= 79 q=-0.0 size=N/A time=00:02:02.58 bitrate=N/A speed= 3.3x    frame= 2980 fps= 79 q=-0.0 size=N/A time=00:02:04.29 bitrate=N/A speed= 3.3x    frame= 3019 fps= 79 q=-0.0 size=N/A time=00:02:05.91 bitrate=N/A speed= 3.3x    frame= 3062 fps= 79 q=-0.0 size=N/A time=00:02:07.71 bitrate=N/A speed= 3.3x    frame= 3099 fps= 79 q=-0.0 size=N/A time=00:02:09.25 bitrate=N/A speed= 3.3x    frame= 3142 fps= 79 q=-0.0 size=N/A time=00:02:11.04 bitrate=N/A speed= 3.3x    frame= 3181 fps= 79 q=-0.0 size=N/A time=00:02:12.67 bitrate=N/A speed= 3.3x    frame= 3228 fps= 79 q=-0.0 size=N/A time=00:02:14.63 bitrate=N/A speed= 3.3x    frame= 3265 fps= 79 q=-0.0 size=N/A time=00:02:16.17 bitrate=N/A speed= 3.3x    frame= 3309 fps= 79 q=-0.0 size=N/A time=00:02:18.01 bitrate=N/A speed= 3.3x    frame= 3345 fps= 79 q=-0.0 size=N/A time=00:02:19.51 bitrate=N/A speed= 3.3x    frame= 3391 fps= 79 q=-0.0 size=N/A time=00:02:21.43 bitrate=N/A speed= 3.3x    frame= 3426 fps= 79 q=-0.0 size=N/A time=00:02:22.89 bitrate=N/A speed= 3.3x    frame= 3473 fps= 79 q=-0.0 size=N/A time=00:02:24.85 bitrate=N/A speed= 3.3x    frame= 3510 fps= 79 q=-0.0 size=N/A time=00:02:26.39 bitrate=N/A speed= 3.3x    frame= 3556 fps= 79 q=-0.0 size=N/A time=00:02:28.31 bitrate=N/A speed=3.31x    frame= 3593 fps= 79 q=-0.0 size=N/A time=00:02:29.85 bitrate=N/A speed= 3.3x    frame= 3637 fps= 79 q=-0.0 size=N/A time=00:02:31.69 bitrate=N/A speed= 3.3x    frame= 3675 fps= 79 q=-0.0 size=N/A time=00:02:33.27 bitrate=N/A speed= 3.3x    frame= 3716 fps= 79 q=-0.0 size=N/A time=00:02:34.98 bitrate=N/A speed= 3.3x    frame= 3755 fps= 79 q=-0.0 size=N/A time=00:02:36.61 bitrate=N/A speed= 3.3x    frame= 3800 fps= 79 q=-0.0 size=N/A time=00:02:38.49 bitrate=N/A speed= 3.3x    frame= 3836 fps= 79 q=-0.0 size=N/A time=00:02:39.99 bitrate=N/A speed= 3.3x    frame= 3879 fps= 79 q=-0.0 size=N/A time=00:02:41.78 bitrate=N/A speed= 3.3x    frame= 3917 fps= 79 q=-0.0 size=N/A time=00:02:43.37 bitrate=N/A speed= 3.3x    frame= 3962 fps= 79 q=-0.0 size=N/A time=00:02:45.24 bitrate=N/A speed= 3.3x    frame= 3999 fps= 79 q=-0.0 size=N/A time=00:02:46.79 bitrate=N/A speed= 3.3x    frame= 4040 fps= 79 q=-0.0 size=N/A time=00:02:48.50 bitrate=N/A speed= 3.3x    frame= 4081 fps= 79 q=-0.0 size=N/A time=00:02:50.21 bitrate=N/A speed= 3.3x    frame= 4122 fps= 79 q=-0.0 size=N/A time=00:02:51.92 bitrate=N/A speed= 3.3x    frame= 4162 fps= 79 q=-0.0 size=N/A time=00:02:53.59 bitrate=N/A speed= 3.3x    frame= 4201 fps= 79 q=-0.0 size=N/A time=00:02:55.21 bitrate=N/A speed= 3.3x    frame= 4240 fps= 79 q=-0.0 size=N/A time=00:02:56.84 bitrate=N/A speed= 3.3x    frame= 4278 fps= 79 q=-0.0 size=N/A time=00:02:58.42 bitrate=N/A speed=3.29x    frame= 4322 fps= 79 q=-0.0 size=N/A time=00:03:00.26 bitrate=N/A speed= 3.3x    frame= 4363 fps= 79 q=-0.0 size=N/A time=00:03:01.97 bitrate=N/A speed= 3.3x    frame= 4406 fps= 79 q=-0.0 size=N/A time=00:03:03.76 bitrate=N/A speed= 3.3x    frame= 4443 fps= 79 q=-0.0 size=N/A time=00:03:05.31 bitrate=N/A speed= 3.3x    frame= 4487 fps= 79 q=-0.0 size=N/A time=00:03:07.14 bitrate=N/A speed= 3.3x    frame= 4524 fps= 79 q=-0.0 size=N/A time=00:03:08.68 bitrate=N/A speed= 3.3x    frame= 4566 fps= 79 q=-0.0 size=N/A time=00:03:10.44 bitrate=N/A speed= 3.3x    frame= 4603 fps= 79 q=-0.0 size=N/A time=00:03:11.98 bitrate=N/A speed=3.29x    frame= 4648 fps= 79 q=-0.0 size=N/A time=00:03:13.86 bitrate=N/A speed= 3.3x    frame= 4685 fps= 79 q=-0.0 size=N/A time=00:03:15.40 bitrate=N/A speed=3.29x    frame= 4728 fps= 79 q=-0.0 size=N/A time=00:03:17.19 bitrate=N/A speed= 3.3x    frame= 4764 fps= 79 q=-0.0 size=N/A time=00:03:18.69 bitrate=N/A speed=3.29x    frame= 4811 fps= 79 q=-0.0 size=N/A time=00:03:20.65 bitrate=N/A speed= 3.3x    frame= 4847 fps= 79 q=-0.0 size=N/A time=00:03:22.16 bitrate=N/A speed=3.29x    frame= 4893 fps= 79 q=-0.0 size=N/A time=00:03:24.07 bitrate=N/A speed= 3.3x    frame= 4928 fps= 79 q=-0.0 size=N/A time=00:03:25.53 bitrate=N/A speed=3.29x    frame= 4975 fps= 79 q=-0.0 size=N/A time=00:03:27.49 bitrate=N/A speed= 3.3x    frame= 5013 fps= 79 q=-0.0 size=N/A time=00:03:29.08 bitrate=N/A speed= 3.3x    frame= 5059 fps= 79 q=-0.0 size=N/A time=00:03:31.00 bitrate=N/A speed= 3.3x    frame= 5096 fps= 79 q=-0.0 size=N/A time=00:03:32.54 bitrate=N/A speed= 3.3x    frame= 5140 fps= 79 q=-0.0 size=N/A time=00:03:34.38 bitrate=N/A speed= 3.3x    frame= 5177 fps= 79 q=-0.0 size=N/A time=00:03:35.92 bitrate=N/A speed= 3.3x    frame= 5223 fps= 79 q=-0.0 size=N/A time=00:03:37.84 bitrate=N/A speed= 3.3x    frame= 5258 fps= 79 q=-0.0 size=N/A time=00:03:39.30 bitrate=N/A speed= 3.3x    frame= 5301 fps= 79 q=-0.0 size=N/A time=00:03:41.09 bitrate=N/A speed= 3.3x    frame= 5340 fps= 79 q=-0.0 size=N/A time=00:03:42.72 bitrate=N/A speed= 3.3x    frame= 5383 fps= 79 q=-0.0 size=N/A time=00:03:44.51 bitrate=N/A speed= 3.3x    frame= 5421 fps= 79 q=-0.0 size=N/A time=00:03:46.10 bitrate=N/A speed= 3.3x    frame= 5463 fps= 79 q=-0.0 size=N/A time=00:03:47.85 bitrate=N/A speed= 3.3x    frame= 5504 fps= 79 q=-0.0 size=N/A time=00:03:49.56 bitrate=N/A speed= 3.3x    frame= 5543 fps= 79 q=-0.0 size=N/A time=00:03:51.18 bitrate=N/A speed= 3.3x    frame= 5583 fps= 79 q=-0.0 size=N/A time=00:03:52.85 bitrate=N/A speed= 3.3x    frame= 5621 fps= 79 q=-0.0 size=N/A time=00:03:54.44 bitrate=N/A speed=3.29x    frame= 5663 fps= 79 q=-0.0 size=N/A time=00:03:56.19 bitrate=N/A speed=3.29x    frame= 5701 fps= 79 q=-0.0 size=N/A time=00:03:57.77 bitrate=N/A speed=3.29x    frame= 5746 fps= 79 q=-0.0 size=N/A time=00:03:59.65 bitrate=N/A speed= 3.3x    frame= 5785 fps= 79 q=-0.0 size=N/A time=00:04:01.28 bitrate=N/A speed= 3.3x    frame= 5829 fps= 79 q=-0.0 size=N/A time=00:04:03.11 bitrate=N/A speed= 3.3x    frame= 5865 fps= 79 q=-0.0 size=N/A time=00:04:04.61 bitrate=N/A speed=3.29x    frame= 5909 fps= 79 q=-0.0 size=N/A time=00:04:06.45 bitrate=N/A speed= 3.3x    frame= 5946 fps= 79 q=-0.0 size=N/A time=00:04:07.99 bitrate=N/A speed=3.29x    frame= 5991 fps= 79 q=-0.0 size=N/A time=00:04:09.87 bitrate=N/A speed= 3.3x    frame= 6029 fps= 79 q=-0.0 size=N/A time=00:04:11.45 bitrate=N/A speed=3.29x    frame= 6075 fps= 79 q=-0.0 size=N/A time=00:04:13.37 bitrate=N/A speed= 3.3x    frame= 6112 fps= 79 q=-0.0 size=N/A time=00:04:14.92 bitrate=N/A speed= 3.3x    frame= 6157 fps= 79 q=-0.0 size=N/A time=00:04:16.79 bitrate=N/A speed= 3.3x    frame= 6195 fps= 79 q=-0.0 size=N/A time=00:04:18.38 bitrate=N/A speed= 3.3x    frame= 6239 fps= 79 q=-0.0 size=N/A time=00:04:20.21 bitrate=N/A speed= 3.3x    frame= 6275 fps= 79 q=-0.0 size=N/A time=00:04:21.71 bitrate=N/A speed= 3.3x    frame= 6322 fps= 79 q=-0.0 size=N/A time=00:04:23.68 bitrate=N/A speed= 3.3x    frame= 6358 fps= 79 q=-0.0 size=N/A time=00:04:25.18 bitrate=N/A speed= 3.3x    frame= 6404 fps= 79 q=-0.0 size=N/A time=00:04:27.10 bitrate=N/A speed= 3.3x    frame= 6441 fps= 79 q=-0.0 size=N/A time=00:04:28.64 bitrate=N/A speed= 3.3x    frame= 6485 fps= 79 q=-0.0 size=N/A time=00:04:30.47 bitrate=N/A speed= 3.3x    frame= 6525 fps= 79 q=-0.0 size=N/A time=00:04:32.14 bitrate=N/A speed= 3.3x    frame= 6568 fps= 79 q=-0.0 size=N/A time=00:04:33.94 bitrate=N/A speed= 3.3x    frame= 6606 fps= 79 q=-0.0 size=N/A time=00:04:35.52 bitrate=N/A speed= 3.3x    frame= 6647 fps= 79 q=-0.0 size=N/A time=00:04:37.23 bitrate=N/A speed= 3.3x    frame= 6686 fps= 79 q=-0.0 size=N/A time=00:04:38.86 bitrate=N/A speed= 3.3x    frame= 6726 fps= 79 q=-0.0 size=N/A time=00:04:40.53 bitrate=N/A speed= 3.3x    frame= 6767 fps= 79 q=-0.0 size=N/A time=00:04:42.24 bitrate=N/A speed= 3.3x    frame= 6806 fps= 79 q=-0.0 size=N/A time=00:04:43.86 bitrate=N/A speed= 3.3x    frame= 6846 fps= 79 q=-0.0 size=N/A time=00:04:45.53 bitrate=N/A speed= 3.3x    frame= 6885 fps= 79 q=-0.0 size=N/A time=00:04:47.16 bitrate=N/A speed= 3.3x    frame= 6929 fps= 79 q=-0.0 size=N/A time=00:04:48.99 bitrate=N/A speed= 3.3x    frame= 6968 fps= 79 q=-0.0 size=N/A time=00:04:50.62 bitrate=N/A speed= 3.3x    frame= 7011 fps= 79 q=-0.0 size=N/A time=00:04:52.41 bitrate=N/A speed= 3.3x    frame= 7049 fps= 79 q=-0.0 size=N/A time=00:04:54.00 bitrate=N/A speed= 3.3x    frame= 7094 fps= 79 q=-0.0 size=N/A time=00:04:55.87 bitrate=N/A speed= 3.3x    frame= 7132 fps= 79 q=-0.0 size=N/A time=00:04:57.46 bitrate=N/A speed= 3.3x    frame= 7174 fps= 79 q=-0.0 size=N/A time=00:04:59.21 bitrate=N/A speed= 3.3x    frame= 7212 fps= 79 q=-0.0 size=N/A time=00:05:00.80 bitrate=N/A speed= 3.3x    frame= 7256 fps= 79 q=-0.0 size=N/A time=00:05:02.63 bitrate=N/A speed= 3.3x    frame= 7292 fps= 79 q=-0.0 size=N/A time=00:05:04.13 bitrate=N/A speed=3.29x    frame= 7337 fps= 79 q=-0.0 size=N/A time=00:05:06.01 bitrate=N/A speed= 3.3x    frame= 7371 fps= 79 q=-0.0 size=N/A time=00:05:07.43 bitrate=N/A speed=3.29x    frame= 7416 fps= 79 q=-0.0 size=N/A time=00:05:09.30 bitrate=N/A speed= 3.3x    frame= 7453 fps= 79 q=-0.0 size=N/A time=00:05:10.85 bitrate=N/A speed=3.29x    frame= 7499 fps= 79 q=-0.0 size=N/A time=00:05:12.77 bitrate=N/A speed= 3.3x    frame= 7535 fps= 79 q=-0.0 size=N/A time=00:05:14.27 bitrate=N/A speed=3.29x    frame= 7579 fps= 79 q=-0.0 size=N/A time=00:05:16.10 bitrate=N/A speed= 3.3x    frame= 7619 fps= 79 q=-0.0 size=N/A time=00:05:17.77 bitrate=N/A speed= 3.3x    frame= 7661 fps= 79 q=-0.0 size=N/A time=00:05:19.52 bitrate=N/A speed= 3.3x    frame= 7699 fps= 79 q=-0.0 size=N/A time=00:05:21.11 bitrate=N/A speed=3.29x    frame= 7743 fps= 79 q=-0.0 size=N/A time=00:05:22.94 bitrate=N/A speed=3.29x    frame= 7781 fps= 79 q=-0.0 size=N/A time=00:05:24.53 bitrate=N/A speed=3.29x    frame= 7819 fps= 79 q=-0.0 size=N/A time=00:05:26.11 bitrate=N/A speed=3.29x    frame= 7854 fps= 79 q=-0.0 size=N/A time=00:05:27.57 bitrate=N/A speed=3.29x    frame= 7895 fps= 79 q=-0.0 size=N/A time=00:05:29.28 bitrate=N/A speed=3.29x    frame= 7935 fps= 79 q=-0.0 size=N/A time=00:05:30.95 bitrate=N/A speed=3.29x    frame= 7976 fps= 79 q=-0.0 size=N/A time=00:05:32.66 bitrate=N/A speed=3.29x    frame= 8018 fps= 79 q=-0.0 size=N/A time=00:05:34.41 bitrate=N/A speed=3.29x    frame= 8058 fps= 79 q=-0.0 size=N/A time=00:05:36.08 bitrate=N/A speed=3.29x    frame= 8101 fps= 79 q=-0.0 size=N/A time=00:05:37.87 bitrate=N/A speed=3.29x    frame= 8139 fps= 79 q=-0.0 size=N/A time=00:05:39.46 bitrate=N/A speed=3.29x    frame= 8182 fps= 79 q=-0.0 size=N/A time=00:05:41.25 bitrate=N/A speed=3.29x    frame= 8220 fps= 79 q=-0.0 size=N/A time=00:05:42.84 bitrate=N/A speed=3.29x    frame= 8266 fps= 79 q=-0.0 size=N/A time=00:05:44.76 bitrate=N/A speed=3.29x    frame= 8304 fps= 79 q=-0.0 size=N/A time=00:05:46.34 bitrate=N/A speed=3.29x    frame= 8349 fps= 79 q=-0.0 size=N/A time=00:05:48.22 bitrate=N/A speed=3.29x    frame= 8389 fps= 79 q=-0.0 size=N/A time=00:05:49.89 bitrate=N/A speed=3.29x    frame= 8438 fps= 79 q=-0.0 size=N/A time=00:05:51.93 bitrate=N/A speed= 3.3x    frame= 8476 fps= 79 q=-0.0 size=N/A time=00:05:53.51 bitrate=N/A speed=3.29x    frame= 8524 fps= 79 q=-0.0 size=N/A time=00:05:55.52 bitrate=N/A speed= 3.3x    frame= 8563 fps= 79 q=-0.0 size=N/A time=00:05:57.14 bitrate=N/A speed= 3.3x    frame= 8610 fps= 79 q=-0.0 size=N/A time=00:05:59.10 bitrate=N/A speed= 3.3x    frame= 8647 fps= 79 q=-0.0 size=N/A time=00:06:00.65 bitrate=N/A speed= 3.3x    frame= 8694 fps= 79 q=-0.0 size=N/A time=00:06:02.61 bitrate=N/A speed= 3.3x    frame= 8732 fps= 79 q=-0.0 size=N/A time=00:06:04.19 bitrate=N/A speed= 3.3x    frame= 8780 fps= 79 q=-0.0 size=N/A time=00:06:06.19 bitrate=N/A speed= 3.3x    frame= 8818 fps= 79 q=-0.0 size=N/A time=00:06:07.78 bitrate=N/A speed= 3.3x    frame= 8864 fps= 79 q=-0.0 size=N/A time=00:06:09.70 bitrate=N/A speed= 3.3x    frame= 8903 fps= 79 q=-0.0 size=N/A time=00:06:11.32 bitrate=N/A speed= 3.3x    frame= 8948 fps= 79 q=-0.0 size=N/A time=00:06:13.20 bitrate=N/A speed= 3.3x    frame= 8986 fps= 79 q=-0.0 size=N/A time=00:06:14.79 bitrate=N/A speed= 3.3x    frame= 9030 fps= 79 q=-0.0 size=N/A time=00:06:16.62 bitrate=N/A speed= 3.3x    frame= 9069 fps= 79 q=-0.0 size=N/A time=00:06:18.25 bitrate=N/A speed= 3.3x    frame= 9115 fps= 79 q=-0.0 size=N/A time=00:06:20.17 bitrate=N/A speed= 3.3x    frame= 9155 fps= 79 q=-0.0 size=N/A time=00:06:21.83 bitrate=N/A speed= 3.3x    frame= 9199 fps= 79 q=-0.0 size=N/A time=00:06:23.67 bitrate=N/A speed=3.31x    frame= 9242 fps= 79 q=-0.0 size=N/A time=00:06:25.46 bitrate=N/A speed=3.31x    frame= 9284 fps= 79 q=-0.0 size=N/A time=00:06:27.22 bitrate=N/A speed=3.31x    frame= 9329 fps= 79 q=-0.0 size=N/A time=00:06:29.09 bitrate=N/A speed=3.31x    frame= 9371 fps= 79 q=-0.0 size=N/A time=00:06:30.84 bitrate=N/A speed=3.31x    frame= 9414 fps= 79 q=-0.0 size=N/A time=00:06:32.64 bitrate=N/A speed=3.31x    frame= 9457 fps= 79 q=-0.0 size=N/A time=00:06:34.43 bitrate=N/A speed=3.31x    frame= 9501 fps= 79 q=-0.0 size=N/A time=00:06:36.27 bitrate=N/A speed=3.31x    frame= 9539 fps= 79 q=-0.0 size=N/A time=00:06:37.85 bitrate=N/A speed=3.31x    frame= 9585 fps= 79 q=-0.0 size=N/A time=00:06:39.77 bitrate=N/A speed=3.31x    frame= 9624 fps= 79 q=-0.0 size=N/A time=00:06:41.40 bitrate=N/A speed=3.31x    frame= 9671 fps= 79 q=-0.0 size=N/A time=00:06:43.36 bitrate=N/A speed=3.31x    frame= 9706 fps= 79 q=-0.0 size=N/A time=00:06:44.82 bitrate=N/A speed=3.31x    frame= 9752 fps= 79 q=-0.0 size=N/A time=00:06:46.73 bitrate=N/A speed=3.31x    frame= 9791 fps= 79 q=-0.0 size=N/A time=00:06:48.36 bitrate=N/A speed=3.31x    frame= 9838 fps= 79 q=-0.0 size=N/A time=00:06:50.32 bitrate=N/A speed=3.31x    frame= 9874 fps= 79 q=-0.0 size=N/A time=00:06:51.82 bitrate=N/A speed=3.31x    frame= 9921 fps= 79 q=-0.0 size=N/A time=00:06:53.78 bitrate=N/A speed=3.31x    frame= 9961 fps= 79 q=-0.0 size=N/A time=00:06:55.45 bitrate=N/A speed=3.31x    frame=10005 fps= 79 q=-0.0 size=N/A time=00:06:57.29 bitrate=N/A speed=3.32x    frame=10044 fps= 79 q=-0.0 size=N/A time=00:06:58.91 bitrate=N/A speed=3.31x    frame=10091 fps= 80 q=-0.0 size=N/A time=00:07:00.87 bitrate=N/A speed=3.32x    frame=10130 fps= 80 q=-0.0 size=N/A time=00:07:02.50 bitrate=N/A speed=3.32x    frame=10177 fps= 80 q=-0.0 size=N/A time=00:07:04.46 bitrate=N/A speed=3.32x    frame=10217 fps= 80 q=-0.0 size=N/A time=00:07:06.13 bitrate=N/A speed=3.32x    frame=10266 fps= 80 q=-0.0 size=N/A time=00:07:08.17 bitrate=N/A speed=3.32x    frame=10303 fps= 80 q=-0.0 size=N/A time=00:07:09.72 bitrate=N/A speed=3.32x    frame=10348 fps= 80 q=-0.0 size=N/A time=00:07:11.59 bitrate=N/A speed=3.32x    frame=10389 fps= 80 q=-0.0 size=N/A time=00:07:13.30 bitrate=N/A speed=3.32x    frame=10433 fps= 80 q=-0.0 size=N/A time=00:07:15.14 bitrate=N/A speed=3.32x    frame=10473 fps= 80 q=-0.0 size=N/A time=00:07:16.81 bitrate=N/A speed=3.32x    frame=10517 fps= 80 q=-0.0 size=N/A time=00:07:18.64 bitrate=N/A speed=3.32x    frame=10559 fps= 80 q=-0.0 size=N/A time=00:07:20.39 bitrate=N/A speed=3.32x    frame=10604 fps= 80 q=-0.0 size=N/A time=00:07:22.27 bitrate=N/A speed=3.32x    frame=10644 fps= 80 q=-0.0 size=N/A time=00:07:23.94 bitrate=N/A speed=3.32x    frame=10686 fps= 80 q=-0.0 size=N/A time=00:07:25.69 bitrate=N/A speed=3.32x    frame=10729 fps= 80 q=-0.0 size=N/A time=00:07:27.48 bitrate=N/A speed=3.32x    frame=10773 fps= 80 q=-0.0 size=N/A time=00:07:29.32 bitrate=N/A speed=3.32x    frame=10814 fps= 80 q=-0.0 size=N/A time=00:07:31.03 bitrate=N/A speed=3.32x    frame=10856 fps= 80 q=-0.0 size=N/A time=00:07:32.78 bitrate=N/A speed=3.32x    frame=10900 fps= 80 q=-0.0 size=N/A time=00:07:34.62 bitrate=N/A speed=3.33x    frame=10940 fps= 80 q=-0.0 size=N/A time=00:07:36.28 bitrate=N/A speed=3.33x    frame=10987 fps= 80 q=-0.0 size=N/A time=00:07:38.24 bitrate=N/A speed=3.33x    frame=11027 fps= 80 q=-0.0 size=N/A time=00:07:39.91 bitrate=N/A speed=3.33x    frame=11074 fps= 80 q=-0.0 size=N/A time=00:07:41.87 bitrate=N/A speed=3.33x    frame=11111 fps= 80 q=-0.0 size=N/A time=00:07:43.42 bitrate=N/A speed=3.33x    frame=11157 fps= 80 q=-0.0 size=N/A time=00:07:45.33 bitrate=N/A speed=3.33x    frame=11197 fps= 80 q=-0.0 size=N/A time=00:07:47.00 bitrate=N/A speed=3.33x    frame=11245 fps= 80 q=-0.0 size=N/A time=00:07:49.01 bitrate=N/A speed=3.33x    frame=11282 fps= 80 q=-0.0 size=N/A time=00:07:50.55 bitrate=N/A speed=3.33x    frame=11329 fps= 80 q=-0.0 size=N/A time=00:07:52.51 bitrate=N/A speed=3.33x    frame=11367 fps= 80 q=-0.0 size=N/A time=00:07:54.09 bitrate=N/A speed=3.33x    frame=11414 fps= 80 q=-0.0 size=N/A time=00:07:56.05 bitrate=N/A speed=3.33x    frame=11455 fps= 80 q=-0.0 size=N/A time=00:07:57.76 bitrate=N/A speed=3.33x    frame=11501 fps= 80 q=-0.0 size=N/A time=00:07:59.68 bitrate=N/A speed=3.33x    frame=11542 fps= 80 q=-0.0 size=N/A time=00:08:01.39 bitrate=N/A speed=3.33x    frame=11589 fps= 80 q=-0.0 size=N/A time=00:08:03.35 bitrate=N/A speed=3.33x    frame=11627 fps= 80 q=-0.0 size=N/A time=00:08:04.94 bitrate=N/A speed=3.33x    frame=11674 fps= 80 q=-0.0 size=N/A time=00:08:06.90 bitrate=N/A speed=3.34x    frame=11714 fps= 80 q=-0.0 size=N/A time=00:08:08.57 bitrate=N/A speed=3.33x    frame=11759 fps= 80 q=-0.0 size=N/A time=00:08:10.44 bitrate=N/A speed=3.34x    frame=11799 fps= 80 q=-0.0 size=N/A time=00:08:12.11 bitrate=N/A speed=3.34x    frame=11843 fps= 80 q=-0.0 size=N/A time=00:08:13.95 bitrate=N/A speed=3.34x    frame=11883 fps= 80 q=-0.0 size=N/A time=00:08:15.62 bitrate=N/A speed=3.34x    frame=11927 fps= 80 q=-0.0 size=N/A time=00:08:17.45 bitrate=N/A speed=3.34x    frame=11967 fps= 80 q=-0.0 size=N/A time=00:08:19.12 bitrate=N/A speed=3.34x    frame=12008 fps= 80 q=-0.0 size=N/A time=00:08:20.83 bitrate=N/A speed=3.34x    frame=12050 fps= 80 q=-0.0 size=N/A time=00:08:22.58 bitrate=N/A speed=3.34x    frame=12093 fps= 80 q=-0.0 size=N/A time=00:08:24.37 bitrate=N/A speed=3.34x    frame=12135 fps= 80 q=-0.0 size=N/A time=00:08:26.13 bitrate=N/A speed=3.34x    frame=12175 fps= 80 q=-0.0 size=N/A time=00:08:27.79 bitrate=N/A speed=3.34x    frame=12218 fps= 80 q=-0.0 size=N/A time=00:08:29.59 bitrate=N/A speed=3.34x    frame=12260 fps= 80 q=-0.0 size=N/A time=00:08:31.34 bitrate=N/A speed=3.34x    frame=12304 fps= 80 q=-0.0 size=N/A time=00:08:33.17 bitrate=N/A speed=3.34x    frame=12342 fps= 80 q=-0.0 size=N/A time=00:08:34.76 bitrate=N/A speed=3.34x    frame=12388 fps= 80 q=-0.0 size=N/A time=00:08:36.68 bitrate=N/A speed=3.34x    frame=12426 fps= 80 q=-0.0 size=N/A time=00:08:38.26 bitrate=N/A speed=3.34x    frame=12474 fps= 80 q=-0.0 size=N/A time=00:08:40.26 bitrate=N/A speed=3.34x    frame=12511 fps= 80 q=-0.0 size=N/A time=00:08:41.81 bitrate=N/A speed=3.34x    frame=12559 fps= 80 q=-0.0 size=N/A time=00:08:43.81 bitrate=N/A speed=3.34x    frame=12597 fps= 80 q=-0.0 size=N/A time=00:08:45.39 bitrate=N/A speed=3.34x    frame=12645 fps= 80 q=-0.0 size=N/A time=00:08:47.40 bitrate=N/A speed=3.34x    frame=12685 fps= 80 q=-0.0 size=N/A time=00:08:49.07 bitrate=N/A speed=3.34x    frame=12731 fps= 80 q=-0.0 size=N/A time=00:08:50.98 bitrate=N/A speed=3.34x    frame=12771 fps= 80 q=-0.0 size=N/A time=00:08:52.65 bitrate=N/A speed=3.34x    frame=12818 fps= 80 q=-0.0 size=N/A time=00:08:54.61 bitrate=N/A speed=3.34x    frame=12856 fps= 80 q=-0.0 size=N/A time=00:08:56.20 bitrate=N/A speed=3.34x    frame=12904 fps= 80 q=-0.0 size=N/A time=00:08:58.20 bitrate=N/A speed=3.34x    frame=12942 fps= 80 q=-0.0 size=N/A time=00:08:59.78 bitrate=N/A speed=3.34x    frame=12989 fps= 80 q=-0.0 size=N/A time=00:09:01.74 bitrate=N/A speed=3.34x    frame=13029 fps= 80 q=-0.0 size=N/A time=00:09:03.41 bitrate=N/A speed=3.34x    frame=13073 fps= 80 q=-0.0 size=N/A time=00:09:05.25 bitrate=N/A speed=3.35x    frame=13116 fps= 80 q=-0.0 size=N/A time=00:09:07.04 bitrate=N/A speed=3.35x    frame=13162 fps= 80 q=-0.0 size=N/A time=00:09:08.96 bitrate=N/A speed=3.35x    frame=13203 fps= 80 q=-0.0 size=N/A time=00:09:10.67 bitrate=N/A speed=3.35x    frame=13247 fps= 80 q=-0.0 size=N/A time=00:09:12.51 bitrate=N/A speed=3.35x    frame=13286 fps= 80 q=-0.0 size=N/A time=00:09:14.13 bitrate=N/A speed=3.35x    frame=13326 fps= 80 q=-0.0 size=N/A time=00:09:15.80 bitrate=N/A speed=3.35x    frame=13368 fps= 80 q=-0.0 size=N/A time=00:09:17.55 bitrate=N/A speed=3.35x    frame=13409 fps= 80 q=-0.0 size=N/A time=00:09:19.26 bitrate=N/A speed=3.35x    frame=13449 fps= 80 q=-0.0 size=N/A time=00:09:20.93 bitrate=N/A speed=3.35x    frame=13491 fps= 80 q=-0.0 size=N/A time=00:09:22.68 bitrate=N/A speed=3.35x    frame=13536 fps= 80 q=-0.0 size=N/A time=00:09:24.56 bitrate=N/A speed=3.35x    frame=13576 fps= 80 q=-0.0 size=N/A time=00:09:26.23 bitrate=N/A speed=3.35x    frame=13621 fps= 80 q=-0.0 size=N/A time=00:09:28.10 bitrate=N/A speed=3.35x    frame=13660 fps= 80 q=-0.0 size=N/A time=00:09:29.73 bitrate=N/A speed=3.35x    frame=13705 fps= 80 q=-0.0 size=N/A time=00:09:31.61 bitrate=N/A speed=3.35x    frame=13745 fps= 80 q=-0.0 size=N/A time=00:09:33.28 bitrate=N/A speed=3.35x    frame=13792 fps= 80 q=-0.0 size=N/A time=00:09:35.24 bitrate=N/A speed=3.35x    frame=13829 fps= 80 q=-0.0 size=N/A time=00:09:36.78 bitrate=N/A speed=3.35x    frame=13876 fps= 80 q=-0.0 size=N/A time=00:09:38.74 bitrate=N/A speed=3.35x    frame=13914 fps= 80 q=-0.0 size=N/A time=00:09:40.32 bitrate=N/A speed=3.35x    frame=13961 fps= 80 q=-0.0 size=N/A time=00:09:42.29 bitrate=N/A speed=3.35x    frame=14001 fps= 80 q=-0.0 size=N/A time=00:09:43.95 bitrate=N/A speed=3.35x    frame=14049 fps= 80 q=-0.0 size=N/A time=00:09:45.96 bitrate=N/A speed=3.35x    frame=14088 fps= 80 q=-0.0 size=N/A time=00:09:47.58 bitrate=N/A speed=3.35x    frame=14135 fps= 80 q=-0.0 size=N/A time=00:09:49.54 bitrate=N/A speed=3.35x    frame=14175 fps= 80 q=-0.0 size=N/A time=00:09:51.21 bitrate=N/A speed=3.35x    frame=14222 fps= 80 q=-0.0 size=N/A time=00:09:53.17 bitrate=N/A speed=3.35x    frame=14258 fps= 80 q=-0.0 size=N/A time=00:09:54.67 bitrate=N/A speed=3.35x    frame=14305 fps= 80 q=-0.0 size=N/A time=00:09:56.63 bitrate=N/A speed=3.35x    frame=14342 fps= 80 q=-0.0 size=N/A time=00:09:58.18 bitrate=N/A speed=3.35x    frame=14388 fps= 80 q=-0.0 size=N/A time=00:10:00.09 bitrate=N/A speed=3.35x    frame=14428 fps= 80 q=-0.0 size=N/A time=00:10:01.76 bitrate=N/A speed=3.35x    frame=14473 fps= 80 q=-0.0 size=N/A time=00:10:03.64 bitrate=N/A speed=3.35x    frame=14513 fps= 80 q=-0.0 size=N/A time=00:10:05.31 bitrate=N/A speed=3.35x    frame=14558 fps= 80 q=-0.0 size=N/A time=00:10:07.18 bitrate=N/A speed=3.35x    frame=14602 fps= 80 q=-0.0 size=N/A time=00:10:09.02 bitrate=N/A speed=3.35x    frame=14647 fps= 80 q=-0.0 size=N/A time=00:10:10.90 bitrate=N/A speed=3.35x    frame=14689 fps= 80 q=-0.0 size=N/A time=00:10:12.65 bitrate=N/A speed=3.36x    frame=14731 fps= 80 q=-0.0 size=N/A time=00:10:14.40 bitrate=N/A speed=3.36x    frame=14773 fps= 80 q=-0.0 size=N/A time=00:10:16.15 bitrate=N/A speed=3.36x    frame=14814 fps= 80 q=-0.0 size=N/A time=00:10:17.86 bitrate=N/A speed=3.36x    frame=14857 fps= 80 q=-0.0 size=N/A time=00:10:19.66 bitrate=N/A speed=3.36x    frame=14899 fps= 80 q=-0.0 size=N/A time=00:10:21.41 bitrate=N/A speed=3.36x    frame=14943 fps= 80 q=-0.0 size=N/A time=00:10:23.24 bitrate=N/A speed=3.36x    frame=14981 fps= 80 q=-0.0 size=N/A time=00:10:24.83 bitrate=N/A speed=3.36x    frame=15026 fps= 80 q=-0.0 size=N/A time=00:10:26.70 bitrate=N/A speed=3.36x    frame=15065 fps= 80 q=-0.0 size=N/A time=00:10:28.33 bitrate=N/A speed=3.36x    frame=15110 fps= 80 q=-0.0 size=N/A time=00:10:30.21 bitrate=N/A speed=3.36x    frame=15147 fps= 80 q=-0.0 size=N/A time=00:10:31.75 bitrate=N/A speed=3.36x    frame=15193 fps= 80 q=-0.0 size=N/A time=00:10:33.67 bitrate=N/A speed=3.36x    frame=15230 fps= 80 q=-0.0 size=N/A time=00:10:35.21 bitrate=N/A speed=3.36x    frame=15277 fps= 80 q=-0.0 size=N/A time=00:10:37.17 bitrate=N/A speed=3.36x    frame=15315 fps= 80 q=-0.0 size=N/A time=00:10:38.76 bitrate=N/A speed=3.36x    frame=15362 fps= 80 q=-0.0 size=N/A time=00:10:40.72 bitrate=N/A speed=3.36x    frame=15400 fps= 80 q=-0.0 size=N/A time=00:10:42.30 bitrate=N/A speed=3.36x    frame=15447 fps= 80 q=-0.0 size=N/A time=00:10:44.26 bitrate=N/A speed=3.36x    frame=15484 fps= 80 q=-0.0 size=N/A time=00:10:45.81 bitrate=N/A speed=3.36x    frame=15531 fps= 80 q=-0.0 size=N/A time=00:10:47.77 bitrate=N/A speed=3.36x    frame=15572 fps= 80 q=-0.0 size=N/A time=00:10:49.48 bitrate=N/A speed=3.36x    frame=15617 fps= 81 q=-0.0 size=N/A time=00:10:51.35 bitrate=N/A speed=3.36x    frame=15654 fps= 80 q=-0.0 size=N/A time=00:10:52.90 bitrate=N/A speed=3.36x    frame=15698 fps= 80 q=-0.0 size=N/A time=00:10:54.73 bitrate=N/A speed=3.36x    frame=15738 fps= 80 q=-0.0 size=N/A time=00:10:56.40 bitrate=N/A speed=3.36x    frame=15779 fps= 80 q=-0.0 size=N/A time=00:10:58.11 bitrate=N/A speed=3.36x    frame=15818 fps= 80 q=-0.0 size=N/A time=00:10:59.74 bitrate=N/A speed=3.36x    frame=15860 fps= 80 q=-0.0 size=N/A time=00:11:01.49 bitrate=N/A speed=3.36x    frame=15902 fps= 80 q=-0.0 size=N/A time=00:11:03.24 bitrate=N/A speed=3.36x    frame=15944 fps= 80 q=-0.0 size=N/A time=00:11:04.99 bitrate=N/A speed=3.36x    frame=15985 fps= 80 q=-0.0 size=N/A time=00:11:06.70 bitrate=N/A speed=3.36x    frame=16025 fps= 80 q=-0.0 size=N/A time=00:11:08.37 bitrate=N/A speed=3.36x    frame=16067 fps= 80 q=-0.0 size=N/A time=00:11:10.12 bitrate=N/A speed=3.36x    frame=16108 fps= 80 q=-0.0 size=N/A time=00:11:11.83 bitrate=N/A speed=3.36x    frame=16151 fps= 80 q=-0.0 size=N/A time=00:11:13.63 bitrate=N/A speed=3.36x    frame=16190 fps= 80 q=-0.0 size=N/A time=00:11:15.25 bitrate=N/A speed=3.36x    frame=16236 fps= 80 q=-0.0 size=N/A time=00:11:17.17 bitrate=N/A speed=3.36x    frame=16275 fps= 80 q=-0.0 size=N/A time=00:11:18.80 bitrate=N/A speed=3.36x    frame=16323 fps= 81 q=-0.0 size=N/A time=00:11:20.80 bitrate=N/A speed=3.36x    frame=16359 fps= 80 q=-0.0 size=N/A time=00:11:22.30 bitrate=N/A speed=3.36x    frame=16406 fps= 81 q=-0.0 size=N/A time=00:11:24.26 bitrate=N/A speed=3.36x    frame=16444 fps= 80 q=-0.0 size=N/A time=00:11:25.85 bitrate=N/A speed=3.36x    frame=16490 fps= 81 q=-0.0 size=N/A time=00:11:27.77 bitrate=N/A speed=3.36x    frame=16527 fps= 80 q=-0.0 size=N/A time=00:11:29.31 bitrate=N/A speed=3.36x    frame=16574 fps= 81 q=-0.0 size=N/A time=00:11:31.27 bitrate=N/A speed=3.36x    frame=16613 fps= 81 q=-0.0 size=N/A time=00:11:32.90 bitrate=N/A speed=3.36x    frame=16661 fps= 81 q=-0.0 size=N/A time=00:11:34.90 bitrate=N/A speed=3.36x    frame=16698 fps= 81 q=-0.0 size=N/A time=00:11:36.44 bitrate=N/A speed=3.36x    frame=16745 fps= 81 q=-0.0 size=N/A time=00:11:38.40 bitrate=N/A speed=3.36x    frame=16783 fps= 81 q=-0.0 size=N/A time=00:11:39.99 bitrate=N/A speed=3.36x    frame=16830 fps= 81 q=-0.0 size=N/A time=00:11:41.95 bitrate=N/A speed=3.36x    frame=16868 fps= 81 q=-0.0 size=N/A time=00:11:43.53 bitrate=N/A speed=3.36x    frame=16913 fps= 81 q=-0.0 size=N/A time=00:11:45.41 bitrate=N/A speed=3.36x    frame=16951 fps= 81 q=-0.0 size=N/A time=00:11:46.99 bitrate=N/A speed=3.36x    frame=16995 fps= 81 q=-0.0 size=N/A time=00:11:48.83 bitrate=N/A speed=3.36x    frame=17033 fps= 81 q=-0.0 size=N/A time=00:11:50.41 bitrate=N/A speed=3.36x    frame=17078 fps= 81 q=-0.0 size=N/A time=00:11:52.29 bitrate=N/A speed=3.36x    frame=17121 fps= 81 q=-0.0 size=N/A time=00:11:54.08 bitrate=N/A speed=3.36x    frame=17164 fps= 81 q=-0.0 size=N/A time=00:11:55.88 bitrate=N/A speed=3.36x    frame=17206 fps= 81 q=-0.0 size=N/A time=00:11:57.63 bitrate=N/A speed=3.36x    frame=17248 fps= 81 q=-0.0 size=N/A time=00:11:59.38 bitrate=N/A speed=3.36x    frame=17293 fps= 81 q=-0.0 size=N/A time=00:12:01.26 bitrate=N/A speed=3.36x    frame=17331 fps= 81 q=-0.0 size=N/A time=00:12:02.84 bitrate=N/A speed=3.36x    frame=17375 fps= 81 q=-0.0 size=N/A time=00:12:04.68 bitrate=N/A speed=3.36x    frame=17414 fps= 81 q=-0.0 size=N/A time=00:12:06.30 bitrate=N/A speed=3.36x    frame=17460 fps= 81 q=-0.0 size=N/A time=00:12:08.22 bitrate=N/A speed=3.36x    frame=17497 fps= 81 q=-0.0 size=N/A time=00:12:09.77 bitrate=N/A speed=3.36x    frame=17542 fps= 81 q=-0.0 size=N/A time=00:12:11.64 bitrate=N/A speed=3.36x    frame=17579 fps= 81 q=-0.0 size=N/A time=00:12:13.19 bitrate=N/A speed=3.36x    frame=17626 fps= 81 q=-0.0 size=N/A time=00:12:15.15 bitrate=N/A speed=3.36x    frame=17665 fps= 81 q=-0.0 size=N/A time=00:12:16.77 bitrate=N/A speed=3.36x    frame=17710 fps= 81 q=-0.0 size=N/A time=00:12:18.65 bitrate=N/A speed=3.36x    frame=17750 fps= 81 q=-0.0 size=N/A time=00:12:20.32 bitrate=N/A speed=3.36x    frame=17796 fps= 81 q=-0.0 size=N/A time=00:12:22.24 bitrate=N/A speed=3.36x    frame=17832 fps= 81 q=-0.0 size=N/A time=00:12:23.74 bitrate=N/A speed=3.36x    frame=17880 fps= 81 q=-0.0 size=N/A time=00:12:25.74 bitrate=N/A speed=3.36x    frame=17921 fps= 81 q=-0.0 size=N/A time=00:12:27.45 bitrate=N/A speed=3.36x    frame=17967 fps= 81 q=-0.0 size=N/A time=00:12:29.37 bitrate=N/A speed=3.36x    frame=18005 fps= 81 q=-0.0 size=N/A time=00:12:30.95 bitrate=N/A speed=3.36x    frame=18050 fps= 81 q=-0.0 size=N/A time=00:12:32.83 bitrate=N/A speed=3.36x    frame=18091 fps= 81 q=-0.0 size=N/A time=00:12:34.54 bitrate=N/A speed=3.36x    frame=18136 fps= 81 q=-0.0 size=N/A time=00:12:36.42 bitrate=N/A speed=3.36x    frame=18170 fps= 81 q=-0.0 size=N/A time=00:12:37.84 bitrate=N/A speed=3.36x    frame=18214 fps= 81 q=-0.0 size=N/A time=00:12:39.67 bitrate=N/A speed=3.36x    frame=18254 fps= 81 q=-0.0 size=N/A time=00:12:41.34 bitrate=N/A speed=3.36x    frame=18298 fps= 81 q=-0.0 size=N/A time=00:12:43.17 bitrate=N/A speed=3.36x    frame=18338 fps= 81 q=-0.0 size=N/A time=00:12:44.84 bitrate=N/A speed=3.36x    frame=18380 fps= 81 q=-0.0 size=N/A time=00:12:46.59 bitrate=N/A speed=3.36x    frame=18421 fps= 81 q=-0.0 size=N/A time=00:12:48.30 bitrate=N/A speed=3.36x    frame=18463 fps= 81 q=-0.0 size=N/A time=00:12:50.06 bitrate=N/A speed=3.36x    frame=18507 fps= 81 q=-0.0 size=N/A time=00:12:51.89 bitrate=N/A speed=3.36x    frame=18548 fps= 81 q=-0.0 size=N/A time=00:12:53.60 bitrate=N/A speed=3.36x    frame=18590 fps= 81 q=-0.0 size=N/A time=00:12:55.35 bitrate=N/A speed=3.36x    frame=18631 fps= 81 q=-0.0 size=N/A time=00:12:57.06 bitrate=N/A speed=3.36x    frame=18674 fps= 81 q=-0.0 size=N/A time=00:12:58.86 bitrate=N/A speed=3.36x    frame=18711 fps= 81 q=-0.0 size=N/A time=00:13:00.40 bitrate=N/A speed=3.36x    frame=18756 fps= 81 q=-0.0 size=N/A time=00:13:02.28 bitrate=N/A speed=3.36x    frame=18795 fps= 81 q=-0.0 size=N/A time=00:13:03.90 bitrate=N/A speed=3.36x    frame=18837 fps= 81 q=-0.0 size=N/A time=00:13:05.65 bitrate=N/A speed=3.36x    frame=18876 fps= 81 q=-0.0 size=N/A time=00:13:07.28 bitrate=N/A speed=3.36x    frame=18925 fps= 81 q=-0.0 size=N/A time=00:13:09.33 bitrate=N/A speed=3.36x    frame=18962 fps= 81 q=-0.0 size=N/A time=00:13:10.87 bitrate=N/A speed=3.36x    frame=19008 fps= 81 q=-0.0 size=N/A time=00:13:12.79 bitrate=N/A speed=3.36x    frame=19047 fps= 81 q=-0.0 size=N/A time=00:13:14.41 bitrate=N/A speed=3.36x    frame=19097 fps= 81 q=-0.0 size=N/A time=00:13:16.50 bitrate=N/A speed=3.36x    frame=19132 fps= 81 q=-0.0 size=N/A time=00:13:17.96 bitrate=N/A speed=3.36x    frame=19179 fps= 81 q=-0.0 size=N/A time=00:13:19.92 bitrate=N/A speed=3.36x    frame=19219 fps= 81 q=-0.0 size=N/A time=00:13:21.59 bitrate=N/A speed=3.36x    frame=19266 fps= 81 q=-0.0 size=N/A time=00:13:23.55 bitrate=N/A speed=3.36x    frame=19303 fps= 81 q=-0.0 size=N/A time=00:13:25.09 bitrate=N/A speed=3.36x    frame=19347 fps= 81 q=-0.0 size=N/A time=00:13:26.93 bitrate=N/A speed=3.36x    frame=19387 fps= 81 q=-0.0 size=N/A time=00:13:28.59 bitrate=N/A speed=3.36x    frame=19435 fps= 81 q=-0.0 size=N/A time=00:13:30.60 bitrate=N/A speed=3.36x    frame=19473 fps= 81 q=-0.0 size=N/A time=00:13:32.18 bitrate=N/A speed=3.36x    frame=19520 fps= 81 q=-0.0 size=N/A time=00:13:34.14 bitrate=N/A speed=3.36x    frame=19558 fps= 81 q=-0.0 size=N/A time=00:13:35.73 bitrate=N/A speed=3.36x    frame=19602 fps= 81 q=-0.0 size=N/A time=00:13:37.56 bitrate=N/A speed=3.36x    frame=19643 fps= 81 q=-0.0 size=N/A time=00:13:39.27 bitrate=N/A speed=3.36x    frame=19687 fps= 81 q=-0.0 size=N/A time=00:13:41.11 bitrate=N/A speed=3.36x    frame=19727 fps= 81 q=-0.0 size=N/A time=00:13:42.78 bitrate=N/A speed=3.36x    frame=19771 fps= 81 q=-0.0 size=N/A time=00:13:44.61 bitrate=N/A speed=3.36x    frame=19816 fps= 81 q=-0.0 size=N/A time=00:13:46.49 bitrate=N/A speed=3.37x    frame=19856 fps= 81 q=-0.0 size=N/A time=00:13:48.16 bitrate=N/A speed=3.36x    frame=19892 fps= 81 q=-0.0 size=N/A time=00:13:49.66 bitrate=N/A speed=3.36x    frame=19933 fps= 81 q=-0.0 size=N/A time=00:13:51.37 bitrate=N/A speed=3.36x    frame=19975 fps= 81 q=-0.0 size=N/A time=00:13:53.12 bitrate=N/A speed=3.36x    frame=20016 fps= 81 q=-0.0 size=N/A time=00:13:54.83 bitrate=N/A speed=3.36x    frame=20061 fps= 81 q=-0.0 size=N/A time=00:13:56.71 bitrate=N/A speed=3.36x    frame=20099 fps= 81 q=-0.0 size=N/A time=00:13:58.29 bitrate=N/A speed=3.36x    frame=20141 fps= 81 q=-0.0 size=N/A time=00:14:00.04 bitrate=N/A speed=3.36x    frame=20179 fps= 81 q=-0.0 size=N/A time=00:14:01.63 bitrate=N/A speed=3.36x    frame=20225 fps= 81 q=-0.0 size=N/A time=00:14:03.55 bitrate=N/A speed=3.36x    frame=20261 fps= 81 q=-0.0 size=N/A time=00:14:05.05 bitrate=N/A speed=3.36x    frame=20306 fps= 81 q=-0.0 size=N/A time=00:14:06.92 bitrate=N/A speed=3.36x    frame=20342 fps= 81 q=-0.0 size=N/A time=00:14:08.43 bitrate=N/A speed=3.36x    frame=20388 fps= 81 q=-0.0 size=N/A time=00:14:10.34 bitrate=N/A speed=3.36x    frame=20424 fps= 81 q=-0.0 size=N/A time=00:14:11.85 bitrate=N/A speed=3.36x    frame=20467 fps= 81 q=-0.0 size=N/A time=00:14:13.64 bitrate=N/A speed=3.36x    frame=20503 fps= 81 q=-0.0 size=N/A time=00:14:15.14 bitrate=N/A speed=3.36x    frame=20549 fps= 81 q=-0.0 size=N/A time=00:14:17.06 bitrate=N/A speed=3.36x    frame=20584 fps= 81 q=-0.0 size=N/A time=00:14:18.52 bitrate=N/A speed=3.36x    frame=20629 fps= 81 q=-0.0 size=N/A time=00:14:20.40 bitrate=N/A speed=3.36x    frame=20666 fps= 81 q=-0.0 size=N/A time=00:14:21.94 bitrate=N/A speed=3.36x    frame=20710 fps= 81 q=-0.0 size=N/A time=00:14:23.77 bitrate=N/A speed=3.36x    frame=20746 fps= 81 q=-0.0 size=N/A time=00:14:25.28 bitrate=N/A speed=3.36x    frame=20788 fps= 81 q=-0.0 size=N/A time=00:14:27.03 bitrate=N/A speed=3.36x    frame=20826 fps= 81 q=-0.0 size=N/A time=00:14:28.61 bitrate=N/A speed=3.36x    frame=20869 fps= 81 q=-0.0 size=N/A time=00:14:30.41 bitrate=N/A speed=3.36x    frame=20908 fps= 81 q=-0.0 size=N/A time=00:14:32.03 bitrate=N/A speed=3.36x    frame=20949 fps= 81 q=-0.0 size=N/A time=00:14:33.74 bitrate=N/A speed=3.36x    frame=20987 fps= 81 q=-0.0 size=N/A time=00:14:35.33 bitrate=N/A speed=3.36x    frame=21026 fps= 81 q=-0.0 size=N/A time=00:14:36.95 bitrate=N/A speed=3.36x    frame=21065 fps= 81 q=-0.0 size=N/A time=00:14:38.58 bitrate=N/A speed=3.36x    frame=21107 fps= 81 q=-0.0 size=N/A time=00:14:40.33 bitrate=N/A speed=3.36x    frame=21150 fps= 81 q=-0.0 size=N/A time=00:14:42.13 bitrate=N/A speed=3.36x    frame=21190 fps= 81 q=-0.0 size=N/A time=00:14:43.79 bitrate=N/A speed=3.36x    frame=21230 fps= 81 q=-0.0 size=N/A time=00:14:45.46 bitrate=N/A speed=3.36x    frame=21268 fps= 81 q=-0.0 size=N/A time=00:14:47.05 bitrate=N/A speed=3.36x    frame=21311 fps= 81 q=-0.0 size=N/A time=00:14:48.84 bitrate=N/A speed=3.36x    frame=21349 fps= 80 q=-0.0 size=N/A time=00:14:50.43 bitrate=N/A speed=3.36x    frame=21395 fps= 81 q=-0.0 size=N/A time=00:14:52.34 bitrate=N/A speed=3.36x    frame=21430 fps= 80 q=-0.0 size=N/A time=00:14:53.80 bitrate=N/A speed=3.36x    frame=21473 fps= 80 q=-0.0 size=N/A time=00:14:55.60 bitrate=N/A speed=3.36x    frame=21510 fps= 80 q=-0.0 size=N/A time=00:14:57.14 bitrate=N/A speed=3.36x    frame=21555 fps= 80 q=-0.0 size=N/A time=00:14:59.02 bitrate=N/A speed=3.36x    frame=21590 fps= 80 q=-0.0 size=N/A time=00:15:00.48 bitrate=N/A speed=3.36x    frame=21633 fps= 80 q=-0.0 size=N/A time=00:15:02.27 bitrate=N/A speed=3.36x    frame=21672 fps= 80 q=-0.0 size=N/A time=00:15:03.90 bitrate=N/A speed=3.36x    frame=21714 fps= 80 q=-0.0 size=N/A time=00:15:05.65 bitrate=N/A speed=3.36x    frame=21751 fps= 80 q=-0.0 size=N/A time=00:15:07.19 bitrate=N/A speed=3.36x    frame=21796 fps= 80 q=-0.0 size=N/A time=00:15:09.07 bitrate=N/A speed=3.36x    frame=21833 fps= 80 q=-0.0 size=N/A time=00:15:10.61 bitrate=N/A speed=3.36x    frame=21877 fps= 80 q=-0.0 size=N/A time=00:15:12.45 bitrate=N/A speed=3.36x    frame=21913 fps= 80 q=-0.0 size=N/A time=00:15:13.95 bitrate=N/A speed=3.35x    frame=21958 fps= 80 q=-0.0 size=N/A time=00:15:15.83 bitrate=N/A speed=3.36x    frame=21993 fps= 80 q=-0.0 size=N/A time=00:15:17.29 bitrate=N/A speed=3.35x    frame=22037 fps= 80 q=-0.0 size=N/A time=00:15:19.12 bitrate=N/A speed=3.35x    frame=22074 fps= 80 q=-0.0 size=N/A time=00:15:20.66 bitrate=N/A speed=3.35x    frame=22118 fps= 80 q=-0.0 size=N/A time=00:15:22.50 bitrate=N/A speed=3.35x    frame=22154 fps= 80 q=-0.0 size=N/A time=00:15:24.00 bitrate=N/A speed=3.35x    frame=22195 fps= 80 q=-0.0 size=N/A time=00:15:25.71 bitrate=N/A speed=3.35x    frame=22234 fps= 80 q=-0.0 size=N/A time=00:15:27.34 bitrate=N/A speed=3.35x    frame=22277 fps= 80 q=-0.0 size=N/A time=00:15:29.13 bitrate=N/A speed=3.35x    frame=22316 fps= 80 q=-0.0 size=N/A time=00:15:30.76 bitrate=N/A speed=3.35x    frame=22358 fps= 80 q=-0.0 size=N/A time=00:15:32.51 bitrate=N/A speed=3.35x    frame=22398 fps= 80 q=-0.0 size=N/A time=00:15:34.18 bitrate=N/A speed=3.35x    frame=22439 fps= 80 q=-0.0 size=N/A time=00:15:35.89 bitrate=N/A speed=3.35x    frame=22480 fps= 80 q=-0.0 size=N/A time=00:15:37.60 bitrate=N/A speed=3.35x    frame=22518 fps= 80 q=-0.0 size=N/A time=00:15:39.18 bitrate=N/A speed=3.35x    frame=22560 fps= 80 q=-0.0 size=N/A time=00:15:40.94 bitrate=N/A speed=3.35x    frame=22598 fps= 80 q=-0.0 size=N/A time=00:15:42.52 bitrate=N/A speed=3.35x    frame=22639 fps= 80 q=-0.0 size=N/A time=00:15:44.23 bitrate=N/A speed=3.35x    frame=22675 fps= 80 q=-0.0 size=N/A time=00:15:45.73 bitrate=N/A speed=3.35x    frame=22717 fps= 80 q=-0.0 size=N/A time=00:15:47.48 bitrate=N/A speed=3.35x    frame=22755 fps= 80 q=-0.0 size=N/A time=00:15:49.07 bitrate=N/A speed=3.35x    frame=22800 fps= 80 q=-0.0 size=N/A time=00:15:50.95 bitrate=N/A speed=3.35x    frame=22836 fps= 80 q=-0.0 size=N/A time=00:15:52.45 bitrate=N/A speed=3.35x    frame=22880 fps= 80 q=-0.0 size=N/A time=00:15:54.28 bitrate=N/A speed=3.35x    frame=22916 fps= 80 q=-0.0 size=N/A time=00:15:55.78 bitrate=N/A speed=3.35x    frame=22958 fps= 80 q=-0.0 size=N/A time=00:15:57.53 bitrate=N/A speed=3.35x    frame=22996 fps= 80 q=-0.0 size=N/A time=00:15:59.12 bitrate=N/A speed=3.35x    frame=23041 fps= 80 q=-0.0 size=N/A time=00:16:01.00 bitrate=N/A speed=3.35x    frame=23078 fps= 80 q=-0.0 size=N/A time=00:16:02.54 bitrate=N/A speed=3.35x    frame=23123 fps= 80 q=-0.0 size=N/A time=00:16:04.42 bitrate=N/A speed=3.35x    frame=23161 fps= 80 q=-0.0 size=N/A time=00:16:06.00 bitrate=N/A speed=3.35x    frame=23204 fps= 80 q=-0.0 size=N/A time=00:16:07.80 bitrate=N/A speed=3.35x    frame=23240 fps= 80 q=-0.0 size=N/A time=00:16:09.30 bitrate=N/A speed=3.35x    frame=23285 fps= 80 q=-0.0 size=N/A time=00:16:11.17 bitrate=N/A speed=3.35x    frame=23323 fps= 80 q=-0.0 size=N/A time=00:16:12.76 bitrate=N/A speed=3.35x    frame=23366 fps= 80 q=-0.0 size=N/A time=00:16:14.55 bitrate=N/A speed=3.35x    frame=23404 fps= 80 q=-0.0 size=N/A time=00:16:16.14 bitrate=N/A speed=3.35x    frame=23448 fps= 80 q=-0.0 size=N/A time=00:16:17.97 bitrate=N/A speed=3.35x    frame=23488 fps= 80 q=-0.0 size=N/A time=00:16:19.64 bitrate=N/A speed=3.35x    frame=23531 fps= 80 q=-0.0 size=N/A time=00:16:21.43 bitrate=N/A speed=3.35x    frame=23570 fps= 80 q=-0.0 size=N/A time=00:16:23.06 bitrate=N/A speed=3.35x    frame=23607 fps= 80 q=-0.0 size=N/A time=00:16:24.60 bitrate=N/A speed=3.35x    frame=23647 fps= 80 q=-0.0 size=N/A time=00:16:26.27 bitrate=N/A speed=3.35x    frame=23684 fps= 80 q=-0.0 size=N/A time=00:16:27.82 bitrate=N/A speed=3.35x    frame=23724 fps= 80 q=-0.0 size=N/A time=00:16:29.48 bitrate=N/A speed=3.35x    frame=23761 fps= 80 q=-0.0 size=N/A time=00:16:31.03 bitrate=N/A speed=3.35x    frame=23801 fps= 80 q=-0.0 size=N/A time=00:16:32.70 bitrate=N/A speed=3.35x    frame=23839 fps= 80 q=-0.0 size=N/A time=00:16:34.28 bitrate=N/A speed=3.35x    frame=23884 fps= 80 q=-0.0 size=N/A time=00:16:36.16 bitrate=N/A speed=3.35x    frame=23920 fps= 80 q=-0.0 size=N/A time=00:16:37.66 bitrate=N/A speed=3.35x    frame=23964 fps= 80 q=-0.0 size=N/A time=00:16:39.49 bitrate=N/A speed=3.35x    frame=24002 fps= 80 q=-0.0 size=N/A time=00:16:41.08 bitrate=N/A speed=3.34x    frame=24045 fps= 80 q=-0.0 size=N/A time=00:16:42.87 bitrate=N/A speed=3.34x    frame=24082 fps= 80 q=-0.0 size=N/A time=00:16:44.42 bitrate=N/A speed=3.34x    frame=24127 fps= 80 q=-0.0 size=N/A time=00:16:46.29 bitrate=N/A speed=3.34x    frame=24163 fps= 80 q=-0.0 size=N/A time=00:16:47.79 bitrate=N/A speed=3.34x    frame=24209 fps= 80 q=-0.0 size=N/A time=00:16:49.71 bitrate=N/A speed=3.34x    frame=24246 fps= 80 q=-0.0 size=N/A time=00:16:51.26 bitrate=N/A speed=3.34x    frame=24291 fps= 80 q=-0.0 size=N/A time=00:16:53.13 bitrate=N/A speed=3.34x    frame=24327 fps= 80 q=-0.0 size=N/A time=00:16:54.63 bitrate=N/A speed=3.34x    frame=24371 fps= 80 q=-0.0 size=N/A time=00:16:56.47 bitrate=N/A speed=3.34x    frame=24405 fps= 80 q=-0.0 size=N/A time=00:16:57.89 bitrate=N/A speed=3.34x    frame=24449 fps= 80 q=-0.0 size=N/A time=00:16:59.72 bitrate=N/A speed=3.34x    frame=24484 fps= 80 q=-0.0 size=N/A time=00:17:01.18 bitrate=N/A speed=3.34x    frame=24527 fps= 80 q=-0.0 size=N/A time=00:17:02.98 bitrate=N/A speed=3.34x    frame=24565 fps= 80 q=-0.0 size=N/A time=00:17:04.56 bitrate=N/A speed=3.34x    frame=24607 fps= 80 q=-0.0 size=N/A time=00:17:06.31 bitrate=N/A speed=3.34x    frame=24644 fps= 80 q=-0.0 size=N/A time=00:17:07.86 bitrate=N/A speed=3.34x    frame=24684 fps= 80 q=-0.0 size=N/A time=00:17:09.52 bitrate=N/A speed=3.34x    frame=24722 fps= 80 q=-0.0 size=N/A time=00:17:11.11 bitrate=N/A speed=3.34x    frame=24762 fps= 80 q=-0.0 size=N/A time=00:17:12.78 bitrate=N/A speed=3.34x    frame=24800 fps= 80 q=-0.0 size=N/A time=00:17:14.36 bitrate=N/A speed=3.34x    frame=24838 fps= 80 q=-0.0 size=N/A time=00:17:15.95 bitrate=N/A speed=3.34x    frame=24876 fps= 80 q=-0.0 size=N/A time=00:17:17.53 bitrate=N/A speed=3.34x    frame=24915 fps= 80 q=-0.0 size=N/A time=00:17:19.16 bitrate=N/A speed=3.34x    frame=24953 fps= 80 q=-0.0 size=N/A time=00:17:20.74 bitrate=N/A speed=3.34x    frame=24991 fps= 80 q=-0.0 size=N/A time=00:17:22.33 bitrate=N/A speed=3.34x    frame=25032 fps= 80 q=-0.0 size=N/A time=00:17:24.04 bitrate=N/A speed=3.34x    frame=25069 fps= 80 q=-0.0 size=N/A time=00:17:25.58 bitrate=N/A speed=3.34x    frame=25110 fps= 80 q=-0.0 size=N/A time=00:17:27.29 bitrate=N/A speed=3.34x    frame=25145 fps= 80 q=-0.0 size=N/A time=00:17:28.75 bitrate=N/A speed=3.34x    frame=25185 fps= 80 q=-0.0 size=N/A time=00:17:30.42 bitrate=N/A speed=3.34x    frame=25220 fps= 80 q=-0.0 size=N/A time=00:17:31.88 bitrate=N/A speed=3.34x    frame=25262 fps= 80 q=-0.0 size=N/A time=00:17:33.63 bitrate=N/A speed=3.34x    frame=25298 fps= 80 q=-0.0 size=N/A time=00:17:35.13 bitrate=N/A speed=3.34x    frame=25339 fps= 80 q=-0.0 size=N/A time=00:17:36.84 bitrate=N/A speed=3.34x    frame=25373 fps= 80 q=-0.0 size=N/A time=00:17:38.26 bitrate=N/A speed=3.33x    frame=25416 fps= 80 q=-0.0 size=N/A time=00:17:40.05 bitrate=N/A speed=3.34x    frame=25450 fps= 80 q=-0.0 size=N/A time=00:17:41.47 bitrate=N/A speed=3.33x    frame=25492 fps= 80 q=-0.0 size=N/A time=00:17:43.22 bitrate=N/A speed=3.33x    frame=25527 fps= 80 q=-0.0 size=N/A time=00:17:44.68 bitrate=N/A speed=3.33x    frame=25571 fps= 80 q=-0.0 size=N/A time=00:17:46.52 bitrate=N/A speed=3.33x    frame=25604 fps= 80 q=-0.0 size=N/A time=00:17:47.90 bitrate=N/A speed=3.33x    frame=25648 fps= 80 q=-0.0 size=N/A time=00:17:49.73 bitrate=N/A speed=3.33x    frame=25683 fps= 80 q=-0.0 size=N/A time=00:17:51.19 bitrate=N/A speed=3.33x    frame=25726 fps= 80 q=-0.0 size=N/A time=00:17:52.98 bitrate=N/A speed=3.33x    frame=25757 fps= 80 q=-0.0 size=N/A time=00:17:54.28 bitrate=N/A speed=3.33x    frame=25797 fps= 80 q=-0.0 size=N/A time=00:17:55.94 bitrate=N/A speed=3.33x    frame=25831 fps= 80 q=-0.0 size=N/A time=00:17:57.36 bitrate=N/A speed=3.33x    frame=25869 fps= 80 q=-0.0 size=N/A time=00:17:58.95 bitrate=N/A speed=3.33x    frame=25905 fps= 80 q=-0.0 size=N/A time=00:18:00.45 bitrate=N/A speed=3.33x    frame=25945 fps= 80 q=-0.0 size=N/A time=00:18:02.12 bitrate=N/A speed=3.33x    frame=25988 fps= 80 q=-0.0 size=N/A time=00:18:03.91 bitrate=N/A speed=3.33x    frame=26028 fps= 80 q=-0.0 size=N/A time=00:18:05.58 bitrate=N/A speed=3.33x    frame=26068 fps= 80 q=-0.0 size=N/A time=00:18:07.25 bitrate=N/A speed=3.33x    frame=26105 fps= 80 q=-0.0 size=N/A time=00:18:08.79 bitrate=N/A speed=3.33x    frame=26146 fps= 80 q=-0.0 size=N/A time=00:18:10.50 bitrate=N/A speed=3.33x    frame=26184 fps= 80 q=-0.0 size=N/A time=00:18:12.09 bitrate=N/A speed=3.33x    frame=26225 fps= 80 q=-0.0 size=N/A time=00:18:13.80 bitrate=N/A speed=3.33x    frame=26260 fps= 80 q=-0.0 size=N/A time=00:18:15.26 bitrate=N/A speed=3.33x    frame=26303 fps= 80 q=-0.0 size=N/A time=00:18:17.05 bitrate=N/A speed=3.33x    frame=26340 fps= 80 q=-0.0 size=N/A time=00:18:18.59 bitrate=N/A speed=3.33x    frame=26382 fps= 80 q=-0.0 size=N/A time=00:18:20.34 bitrate=N/A speed=3.33x    frame=26416 fps= 80 q=-0.0 size=N/A time=00:18:21.76 bitrate=N/A speed=3.33x    frame=26456 fps= 80 q=-0.0 size=N/A time=00:18:23.43 bitrate=N/A speed=3.33x    frame=26492 fps= 80 q=-0.0 size=N/A time=00:18:24.93 bitrate=N/A speed=3.33x    frame=26534 fps= 80 q=-0.0 size=N/A time=00:18:26.68 bitrate=N/A speed=3.33x    frame=26567 fps= 80 q=-0.0 size=N/A time=00:18:28.06 bitrate=N/A speed=3.32x    frame=26611 fps= 80 q=-0.0 size=N/A time=00:18:29.90 bitrate=N/A speed=3.32x    frame=26644 fps= 80 q=-0.0 size=N/A time=00:18:31.27 bitrate=N/A speed=3.32x    frame=26687 fps= 80 q=-0.0 size=N/A time=00:18:33.07 bitrate=N/A speed=3.32x    frame=26724 fps= 80 q=-0.0 size=N/A time=00:18:34.61 bitrate=N/A speed=3.32x    frame=26767 fps= 80 q=-0.0 size=N/A time=00:18:36.40 bitrate=N/A speed=3.32x    frame=26801 fps= 80 q=-0.0 size=N/A time=00:18:37.82 bitrate=N/A speed=3.32x    frame=26843 fps= 80 q=-0.0 size=N/A time=00:18:39.57 bitrate=N/A speed=3.32x    frame=26879 fps= 80 q=-0.0 size=N/A time=00:18:41.07 bitrate=N/A speed=3.32x    frame=26919 fps= 80 q=-0.0 size=N/A time=00:18:42.74 bitrate=N/A speed=3.32x    frame=26953 fps= 80 q=-0.0 size=N/A time=00:18:44.16 bitrate=N/A speed=3.32x    frame=26993 fps= 80 q=-0.0 size=N/A time=00:18:45.83 bitrate=N/A speed=3.32x    frame=27025 fps= 80 q=-0.0 size=N/A time=00:18:47.16 bitrate=N/A speed=3.32x    frame=27066 fps= 80 q=-0.0 size=N/A time=00:18:48.87 bitrate=N/A speed=3.32x    frame=27098 fps= 80 q=-0.0 size=N/A time=00:18:50.21 bitrate=N/A speed=3.32x    frame=27137 fps= 80 q=-0.0 size=N/A time=00:18:51.83 bitrate=N/A speed=3.32x    frame=27180 fps= 80 q=-0.0 size=N/A time=00:18:53.63 bitrate=N/A speed=3.32x    frame=27220 fps= 80 q=-0.0 size=N/A time=00:18:55.30 bitrate=N/A speed=3.32x    frame=27259 fps= 80 q=-0.0 size=N/A time=00:18:56.92 bitrate=N/A speed=3.32x    frame=27297 fps= 80 q=-0.0 size=N/A time=00:18:58.51 bitrate=N/A speed=3.32x    frame=27340 fps= 80 q=-0.0 size=N/A time=00:19:00.30 bitrate=N/A speed=3.32x    frame=27380 fps= 80 q=-0.0 size=N/A time=00:19:01.97 bitrate=N/A speed=3.32x    frame=27421 fps= 80 q=-0.0 size=N/A time=00:19:03.68 bitrate=N/A speed=3.32x    frame=27458 fps= 80 q=-0.0 size=N/A time=00:19:05.22 bitrate=N/A speed=3.32x    frame=27499 fps= 80 q=-0.0 size=N/A time=00:19:06.93 bitrate=N/A speed=3.32x    frame=27536 fps= 80 q=-0.0 size=N/A time=00:19:08.48 bitrate=N/A speed=3.32x    frame=27577 fps= 80 q=-0.0 size=N/A time=00:19:10.19 bitrate=N/A speed=3.32x    frame=27617 fps= 80 q=-0.0 size=N/A time=00:19:11.85 bitrate=N/A speed=3.32x    frame=27658 fps= 80 q=-0.0 size=N/A time=00:19:13.56 bitrate=N/A speed=3.32x    frame=27696 fps= 80 q=-0.0 size=N/A time=00:19:15.15 bitrate=N/A speed=3.32x    frame=27739 fps= 80 q=-0.0 size=N/A time=00:19:16.94 bitrate=N/A speed=3.32x    frame=27774 fps= 80 q=-0.0 size=N/A time=00:19:18.40 bitrate=N/A speed=3.32x    frame=27815 fps= 80 q=-0.0 size=N/A time=00:19:20.11 bitrate=N/A speed=3.32x    frame=27852 fps= 79 q=-0.0 size=N/A time=00:19:21.66 bitrate=N/A speed=3.32x    frame=27895 fps= 80 q=-0.0 size=N/A time=00:19:23.45 bitrate=N/A speed=3.32x    frame=27929 fps= 79 q=-0.0 size=N/A time=00:19:24.87 bitrate=N/A speed=3.32x    frame=27970 fps= 79 q=-0.0 size=N/A time=00:19:26.58 bitrate=N/A speed=3.32x    frame=28003 fps= 79 q=-0.0 size=N/A time=00:19:27.95 bitrate=N/A speed=3.31x    frame=28044 fps= 79 q=-0.0 size=N/A time=00:19:29.66 bitrate=N/A speed=3.31x    frame=28079 fps= 79 q=-0.0 size=N/A time=00:19:31.12 bitrate=N/A speed=3.31x    frame=28119 fps= 79 q=-0.0 size=N/A time=00:19:32.79 bitrate=N/A speed=3.31x    frame=28156 fps= 79 q=-0.0 size=N/A time=00:19:34.33 bitrate=N/A speed=3.31x    frame=28196 fps= 79 q=-0.0 size=N/A time=00:19:36.00 bitrate=N/A speed=3.31x    frame=28232 fps= 79 q=-0.0 size=N/A time=00:19:37.50 bitrate=N/A speed=3.31x    frame=28272 fps= 79 q=-0.0 size=N/A time=00:19:39.17 bitrate=N/A speed=3.31x    frame=28310 fps= 79 q=-0.0 size=N/A time=00:19:40.76 bitrate=N/A speed=3.31x    frame=28348 fps= 79 q=-0.0 size=N/A time=00:19:42.34 bitrate=N/A speed=3.31x    frame=28385 fps= 79 q=-0.0 size=N/A time=00:19:43.89 bitrate=N/A speed=3.31x    frame=28425 fps= 79 q=-0.0 size=N/A time=00:19:45.55 bitrate=N/A speed=3.31x    frame=28465 fps= 79 q=-0.0 size=N/A time=00:19:47.22 bitrate=N/A speed=3.31x    frame=28503 fps= 79 q=-0.0 size=N/A time=00:19:48.81 bitrate=N/A speed=3.31x    frame=28539 fps= 79 q=-0.0 size=N/A time=00:19:50.31 bitrate=N/A speed=3.31x    frame=28576 fps= 79 q=-0.0 size=N/A time=00:19:51.85 bitrate=N/A speed=3.31x    frame=28610 fps= 79 q=-0.0 size=N/A time=00:19:53.27 bitrate=N/A speed=3.31x    frame=28645 fps= 79 q=-0.0 size=N/A time=00:19:54.73 bitrate=N/A speed=3.31x    frame=28688 fps= 79 q=-0.0 size=N/A time=00:19:56.52 bitrate=N/A speed=3.31x    frame=28725 fps= 79 q=-0.0 size=N/A time=00:19:58.07 bitrate=N/A speed=3.31x    frame=28769 fps= 79 q=-0.0 size=N/A time=00:19:59.90 bitrate=N/A speed=3.31x    frame=28807 fps= 79 q=-0.0 size=N/A time=00:20:01.49 bitrate=N/A speed=3.31x    frame=28851 fps= 79 q=-0.0 size=N/A time=00:20:03.32 bitrate=N/A speed=3.31x    frame=28887 fps= 79 q=-0.0 size=N/A time=00:20:04.82 bitrate=N/A speed=3.31x    frame=28931 fps= 79 q=-0.0 size=N/A time=00:20:06.66 bitrate=N/A speed=3.31x    frame=28969 fps= 79 q=-0.0 size=N/A time=00:20:08.24 bitrate=N/A speed=3.31x    frame=29013 fps= 79 q=-0.0 size=N/A time=00:20:10.08 bitrate=N/A speed=3.31x    frame=29049 fps= 79 q=-0.0 size=N/A time=00:20:11.58 bitrate=N/A speed=3.31x    frame=29088 fps= 79 q=-0.0 size=N/A time=00:20:13.21 bitrate=N/A speed=3.31x    frame=29121 fps= 79 q=-0.0 size=N/A time=00:20:14.58 bitrate=N/A speed=3.31x    frame=29164 fps= 79 q=-0.0 size=N/A time=00:20:16.38 bitrate=N/A speed=3.31x    frame=29199 fps= 79 q=-0.0 size=N/A time=00:20:17.84 bitrate=N/A speed=3.31x    frame=29242 fps= 79 q=-0.0 size=N/A time=00:20:19.63 bitrate=N/A speed=3.31x    frame=29278 fps= 79 q=-0.0 size=N/A time=00:20:21.13 bitrate=N/A speed=3.31x    frame=29322 fps= 79 q=-0.0 size=N/A time=00:20:22.97 bitrate=N/A speed=3.31x    frame=29356 fps= 79 q=-0.0 size=N/A time=00:20:24.38 bitrate=N/A speed= 3.3x    frame=29394 fps= 79 q=-0.0 size=N/A time=00:20:25.97 bitrate=N/A speed= 3.3x    frame=29431 fps= 79 q=-0.0 size=N/A time=00:20:27.51 bitrate=N/A speed= 3.3x    frame=29472 fps= 79 q=-0.0 size=N/A time=00:20:29.22 bitrate=N/A speed= 3.3x    frame=29506 fps= 79 q=-0.0 size=N/A time=00:20:30.64 bitrate=N/A speed= 3.3x    frame=29544 fps= 79 q=-0.0 size=N/A time=00:20:32.23 bitrate=N/A speed= 3.3x    frame=29587 fps= 79 q=-0.0 size=N/A time=00:20:34.02 bitrate=N/A speed= 3.3x    frame=29624 fps= 79 q=-0.0 size=N/A time=00:20:35.56 bitrate=N/A speed= 3.3x    frame=29658 fps= 79 q=-0.0 size=N/A time=00:20:36.98 bitrate=N/A speed= 3.3x    frame=29697 fps= 79 q=-0.0 size=N/A time=00:20:38.61 bitrate=N/A speed= 3.3x    frame=29739 fps= 79 q=-0.0 size=N/A time=00:20:40.36 bitrate=N/A speed= 3.3x    frame=29774 fps= 79 q=-0.0 size=N/A time=00:20:41.82 bitrate=N/A speed= 3.3x    frame=29811 fps= 79 q=-0.0 size=N/A time=00:20:43.36 bitrate=N/A speed= 3.3x    frame=29849 fps= 79 q=-0.0 size=N/A time=00:20:44.95 bitrate=N/A speed= 3.3x    frame=29889 fps= 79 q=-0.0 size=N/A time=00:20:46.62 bitrate=N/A speed= 3.3x    frame=29925 fps= 79 q=-0.0 size=N/A time=00:20:48.12 bitrate=N/A speed= 3.3x    frame=29966 fps= 79 q=-0.0 size=N/A time=00:20:49.83 bitrate=N/A speed= 3.3x    frame=30000 fps= 79 q=-0.0 size=N/A time=00:20:51.25 bitrate=N/A speed= 3.3x    frame=30040 fps= 79 q=-0.0 size=N/A time=00:20:52.91 bitrate=N/A speed= 3.3x    frame=30076 fps= 79 q=-0.0 size=N/A time=00:20:54.41 bitrate=N/A speed= 3.3x    frame=30116 fps= 79 q=-0.0 size=N/A time=00:20:56.08 bitrate=N/A speed= 3.3x    frame=30154 fps= 79 q=-0.0 size=N/A time=00:20:57.67 bitrate=N/A speed= 3.3x    frame=30196 fps= 79 q=-0.0 size=N/A time=00:20:59.42 bitrate=N/A speed= 3.3x    frame=30229 fps= 79 q=-0.0 size=N/A time=00:21:00.80 bitrate=N/A speed= 3.3x    frame=30261 fps= 79 q=-0.0 size=N/A time=00:21:02.13 bitrate=N/A speed= 3.3x    frame=30305 fps= 79 q=-0.0 size=N/A time=00:21:03.97 bitrate=N/A speed= 3.3x    frame=30348 fps= 79 q=-0.0 size=N/A time=00:21:05.76 bitrate=N/A speed= 3.3x    frame=30381 fps= 79 q=-0.0 size=N/A time=00:21:07.14 bitrate=N/A speed= 3.3x    frame=30424 fps= 79 q=-0.0 size=N/A time=00:21:08.93 bitrate=N/A speed= 3.3x    frame=30462 fps= 79 q=-0.0 size=N/A time=00:21:10.51 bitrate=N/A speed= 3.3x    frame=30505 fps= 79 q=-0.0 size=N/A time=00:21:12.31 bitrate=N/A speed= 3.3x    frame=30541 fps= 79 q=-0.0 size=N/A time=00:21:13.81 bitrate=N/A speed= 3.3x    frame=30586 fps= 79 q=-0.0 size=N/A time=00:21:15.69 bitrate=N/A speed= 3.3x    frame=30621 fps= 79 q=-0.0 size=N/A time=00:21:17.15 bitrate=N/A speed= 3.3x    frame=30662 fps= 79 q=-0.0 size=N/A time=00:21:18.86 bitrate=N/A speed= 3.3x    frame=30702 fps= 79 q=-0.0 size=N/A time=00:21:20.52 bitrate=N/A speed= 3.3x    frame=30742 fps= 79 q=-0.0 size=N/A time=00:21:22.19 bitrate=N/A speed= 3.3x    frame=30781 fps= 79 q=-0.0 size=N/A time=00:21:23.82 bitrate=N/A speed= 3.3x    frame=30822 fps= 79 q=-0.0 size=N/A time=00:21:25.53 bitrate=N/A speed= 3.3x    frame=30862 fps= 79 q=-0.0 size=N/A time=00:21:27.20 bitrate=N/A speed= 3.3x    frame=30902 fps= 79 q=-0.0 size=N/A time=00:21:28.87 bitrate=N/A speed= 3.3x    frame=30942 fps= 79 q=-0.0 size=N/A time=00:21:30.53 bitrate=N/A speed= 3.3x    frame=30979 fps= 79 q=-0.0 size=N/A time=00:21:32.08 bitrate=N/A speed=3.29x    frame=31022 fps= 79 q=-0.0 size=N/A time=00:21:33.87 bitrate=N/A speed=3.29x    frame=31059 fps= 79 q=-0.0 size=N/A time=00:21:35.41 bitrate=N/A speed=3.29x    frame=31102 fps= 79 q=-0.0 size=N/A time=00:21:37.21 bitrate=N/A speed=3.29x    frame=31137 fps= 79 q=-0.0 size=N/A time=00:21:38.67 bitrate=N/A speed=3.29x    frame=31179 fps= 79 q=-0.0 size=N/A time=00:21:40.42 bitrate=N/A speed=3.29x    frame=31213 fps= 79 q=-0.0 size=N/A time=00:21:41.84 bitrate=N/A speed=3.29x    frame=31256 fps= 79 q=-0.0 size=N/A time=00:21:43.63 bitrate=N/A speed=3.29x    frame=31291 fps= 79 q=-0.0 size=N/A time=00:21:45.09 bitrate=N/A speed=3.29x    frame=31333 fps= 79 q=-0.0 size=N/A time=00:21:46.84 bitrate=N/A speed=3.29x    frame=31369 fps= 79 q=-0.0 size=N/A time=00:21:48.34 bitrate=N/A speed=3.29x    frame=31415 fps= 79 q=-0.0 size=N/A time=00:21:50.26 bitrate=N/A speed=3.29x    frame=31451 fps= 79 q=-0.0 size=N/A time=00:21:51.76 bitrate=N/A speed=3.29x    frame=31492 fps= 79 q=-0.0 size=N/A time=00:21:53.47 bitrate=N/A speed=3.29x    frame=31525 fps= 79 q=-0.0 size=N/A time=00:21:54.85 bitrate=N/A speed=3.29x    frame=31565 fps= 79 q=-0.0 size=N/A time=00:21:56.52 bitrate=N/A speed=3.29x    frame=31602 fps= 79 q=-0.0 size=N/A time=00:21:58.06 bitrate=N/A speed=3.29x    frame=31644 fps= 79 q=-0.0 size=N/A time=00:21:59.81 bitrate=N/A speed=3.29x    frame=31677 fps= 79 q=-0.0 size=N/A time=00:22:01.19 bitrate=N/A speed=3.29x    frame=31716 fps= 79 q=-0.0 size=N/A time=00:22:02.82 bitrate=N/A speed=3.29x    frame=31754 fps= 79 q=-0.0 size=N/A time=00:22:04.40 bitrate=N/A speed=3.29x    frame=31793 fps= 79 q=-0.0 size=N/A time=00:22:06.03 bitrate=N/A speed=3.29x    frame=31828 fps= 79 q=-0.0 size=N/A time=00:22:07.49 bitrate=N/A speed=3.29x    frame=31868 fps= 79 q=-0.0 size=N/A time=00:22:09.16 bitrate=N/A speed=3.29x    frame=31906 fps= 79 q=-0.0 size=N/A time=00:22:10.74 bitrate=N/A speed=3.29x    frame=31949 fps= 79 q=-0.0 size=N/A time=00:22:12.53 bitrate=N/A speed=3.29x    frame=31989 fps= 79 q=-0.0 size=N/A time=00:22:14.20 bitrate=N/A speed=3.29x    frame=32030 fps= 79 q=-0.0 size=N/A time=00:22:15.91 bitrate=N/A speed=3.29x    frame=32071 fps= 79 q=-0.0 size=N/A time=00:22:17.62 bitrate=N/A speed=3.29x    frame=32110 fps= 79 q=-0.0 size=N/A time=00:22:19.25 bitrate=N/A speed=3.29x    frame=32148 fps= 79 q=-0.0 size=N/A time=00:22:20.83 bitrate=N/A speed=3.29x    frame=32188 fps= 79 q=-0.0 size=N/A time=00:22:22.50 bitrate=N/A speed=3.29x    frame=32228 fps= 79 q=-0.0 size=N/A time=00:22:24.17 bitrate=N/A speed=3.29x    frame=32266 fps= 79 q=-0.0 size=N/A time=00:22:25.76 bitrate=N/A speed=3.29x    frame=32304 fps= 79 q=-0.0 size=N/A time=00:22:27.34 bitrate=N/A speed=3.29x    frame=32342 fps= 79 q=-0.0 size=N/A time=00:22:28.93 bitrate=N/A speed=3.29x    frame=32383 fps= 79 q=-0.0 size=N/A time=00:22:30.64 bitrate=N/A speed=3.29x    frame=32418 fps= 79 q=-0.0 size=N/A time=00:22:32.10 bitrate=N/A speed=3.29x    frame=32459 fps= 79 q=-0.0 size=N/A time=00:22:33.81 bitrate=N/A speed=3.29x    frame=32492 fps= 79 q=-0.0 size=N/A time=00:22:35.18 bitrate=N/A speed=3.29x    frame=32533 fps= 79 q=-0.0 size=N/A time=00:22:36.89 bitrate=N/A speed=3.29x    frame=32570 fps= 79 q=-0.0 size=N/A time=00:22:38.44 bitrate=N/A speed=3.29x    frame=32611 fps= 79 q=-0.0 size=N/A time=00:22:40.15 bitrate=N/A speed=3.29x    frame=32644 fps= 79 q=-0.0 size=N/A time=00:22:41.52 bitrate=N/A speed=3.29x    frame=32685 fps= 79 q=-0.0 size=N/A time=00:22:43.23 bitrate=N/A speed=3.29x    frame=32721 fps= 79 q=-0.0 size=N/A time=00:22:44.73 bitrate=N/A speed=3.29x    frame=32760 fps= 79 q=-0.0 size=N/A time=00:22:46.36 bitrate=N/A speed=3.29x    frame=32795 fps= 79 q=-0.0 size=N/A time=00:22:47.82 bitrate=N/A speed=3.28x    frame=32836 fps= 79 q=-0.0 size=N/A time=00:22:49.53 bitrate=N/A speed=3.28x    frame=32872 fps= 79 q=-0.0 size=N/A time=00:22:51.03 bitrate=N/A speed=3.28x    frame=32912 fps= 79 q=-0.0 size=N/A time=00:22:52.70 bitrate=N/A speed=3.28x    frame=32949 fps= 79 q=-0.0 size=N/A time=00:22:54.24 bitrate=N/A speed=3.28x    frame=32988 fps= 79 q=-0.0 size=N/A time=00:22:55.87 bitrate=N/A speed=3.28x    frame=33026 fps= 79 q=-0.0 size=N/A time=00:22:57.45 bitrate=N/A speed=3.28x    frame=33066 fps= 79 q=-0.0 size=N/A time=00:22:59.12 bitrate=N/A speed=3.28x    frame=33100 fps= 79 q=-0.0 size=N/A time=00:23:00.54 bitrate=N/A speed=3.28x    frame=33136 fps= 79 q=-0.0 size=N/A time=00:23:02.04 bitrate=N/A speed=3.28x    frame=33173 fps= 79 q=-0.0 size=N/A time=00:23:03.59 bitrate=N/A speed=3.28x    frame=33211 fps= 79 q=-0.0 size=N/A time=00:23:05.17 bitrate=N/A speed=3.28x    frame=33247 fps= 79 q=-0.0 size=N/A time=00:23:06.67 bitrate=N/A speed=3.28x    frame=33286 fps= 79 q=-0.0 size=N/A time=00:23:08.30 bitrate=N/A speed=3.28x    frame=33321 fps= 79 q=-0.0 size=N/A time=00:23:09.76 bitrate=N/A speed=3.28x    frame=33358 fps= 79 q=-0.0 size=N/A time=00:23:11.30 bitrate=N/A speed=3.28x    frame=33395 fps= 79 q=-0.0 size=N/A time=00:23:12.84 bitrate=N/A speed=3.28x    frame=33430 fps= 79 q=-0.0 size=N/A time=00:23:14.30 bitrate=N/A speed=3.28x    frame=33472 fps= 79 q=-0.0 size=N/A time=00:23:16.06 bitrate=N/A speed=3.28x    frame=33507 fps= 79 q=-0.0 size=N/A time=00:23:17.52 bitrate=N/A speed=3.28x    frame=33546 fps= 79 q=-0.0 size=N/A time=00:23:19.14 bitrate=N/A speed=3.28x    frame=33583 fps= 79 q=-0.0 size=N/A time=00:23:20.69 bitrate=N/A speed=3.28x    frame=33625 fps= 79 q=-0.0 size=N/A time=00:23:22.44 bitrate=N/A speed=3.28x    frame=33659 fps= 79 q=-0.0 size=N/A time=00:23:23.86 bitrate=N/A speed=3.28x    frame=33702 fps= 79 q=-0.0 size=N/A time=00:23:25.65 bitrate=N/A speed=3.28x    frame=33737 fps= 79 q=-0.0 size=N/A time=00:23:27.11 bitrate=N/A speed=3.28x    frame=33779 fps= 79 q=-0.0 size=N/A time=00:23:28.86 bitrate=N/A speed=3.28x    frame=33814 fps= 79 q=-0.0 size=N/A time=00:23:30.32 bitrate=N/A speed=3.28x    frame=33854 fps= 79 q=-0.0 size=N/A time=00:23:31.99 bitrate=N/A speed=3.28x    frame=33887 fps= 79 q=-0.0 size=N/A time=00:23:33.37 bitrate=N/A speed=3.28x    frame=33929 fps= 79 q=-0.0 size=N/A time=00:23:35.12 bitrate=N/A speed=3.28x    frame=33966 fps= 79 q=-0.0 size=N/A time=00:23:36.66 bitrate=N/A speed=3.28x    frame=34009 fps= 79 q=-0.0 size=N/A time=00:23:38.45 bitrate=N/A speed=3.28x    frame=34042 fps= 79 q=-0.0 size=N/A time=00:23:39.83 bitrate=N/A speed=3.28x    frame=34085 fps= 79 q=-0.0 size=N/A time=00:23:41.62 bitrate=N/A speed=3.28x    frame=34120 fps= 79 q=-0.0 size=N/A time=00:23:43.08 bitrate=N/A speed=3.28x    frame=34161 fps= 79 q=-0.0 size=N/A time=00:23:44.79 bitrate=N/A speed=3.28x    frame=34196 fps= 79 q=-0.0 size=N/A time=00:23:46.25 bitrate=N/A speed=3.28x    frame=34237 fps= 79 q=-0.0 size=N/A time=00:23:47.96 bitrate=N/A speed=3.28x    frame=34275 fps= 79 q=-0.0 size=N/A time=00:23:49.55 bitrate=N/A speed=3.27x    frame=34317 fps= 79 q=-0.0 size=N/A time=00:23:51.30 bitrate=N/A speed=3.28x    frame=34353 fps= 79 q=-0.0 size=N/A time=00:23:52.80 bitrate=N/A speed=3.27x    frame=34391 fps= 79 q=-0.0 size=N/A time=00:23:54.39 bitrate=N/A speed=3.27x    frame=34428 fps= 79 q=-0.0 size=N/A time=00:23:55.93 bitrate=N/A speed=3.27x    frame=34465 fps= 78 q=-0.0 size=N/A time=00:23:57.47 bitrate=N/A speed=3.27x    frame=34502 fps= 78 q=-0.0 size=N/A time=00:23:59.02 bitrate=N/A speed=3.27x    frame=34540 fps= 78 q=-0.0 size=N/A time=00:24:00.60 bitrate=N/A speed=3.27x    frame=34579 fps= 78 q=-0.0 size=N/A time=00:24:02.23 bitrate=N/A speed=3.27x    frame=34618 fps= 78 q=-0.0 size=N/A time=00:24:03.85 bitrate=N/A speed=3.27x    frame=34657 fps= 78 q=-0.0 size=N/A time=00:24:05.48 bitrate=N/A speed=3.27x    frame=34697 fps= 78 q=-0.0 size=N/A time=00:24:07.15 bitrate=N/A speed=3.27x    [Parsed_libvmaf_10 @ 000001c91ad6e600] VMAF score: 93.856769
[out#0/null @ 000001c918c2d280] video:14919KiB audio:271544KiB subtitle:0KiB other streams:0KiB global headers:0KiB muxing overhead: unknown
frame=34720 fps= 78 q=-0.0 Lsize=N/A time=00:24:08.11 bitrate=N/A speed=3.26x    
